<svg width="108" height="71" viewBox="0 0 108 71" fill="none" xmlns="http://www.w3.org/2000/svg">
<g clip-path="url(#clip0_1_249)">
<path d="M43.7096 34.5103L40.17 36.173L38.0298 37.2337L36.1674 37.8786L33.0045 39.4428L33.433 39.8799L34.8497 39.4942L35.8164 38.9543L37.3774 38.4122L40.297 36.8587L43.8625 35.4209L46.6098 34.086L50.7846 33.034L53.4243 31.7997L53.4566 31.0927L50.6339 32.1919L47.7811 33.1432L43.7096 34.5103Z" fill="white"/>
<path d="M27.118 36.2994L27.4797 36.5823C27.4905 36.5823 27.5012 36.578 27.512 36.5758C27.5874 36.5073 27.6519 36.4859 27.7165 36.5073C27.7876 36.4816 27.878 36.4516 27.9663 36.4237C28.0266 36.3187 28.0955 36.2287 28.145 36.1559C27.8414 35.618 26.9651 33.8032 26.1835 32.6697C25.9424 32.3118 25.7034 32.0161 25.4989 31.8554L25.1242 31.5619L24.9994 31.714L24.6527 32.1469C25.1651 32.6932 25.5527 33.2803 25.768 33.816C26.0091 34.3817 26.4979 35.8088 27.1201 36.2994H27.118Z" fill="white"/>
<path d="M34.4923 40.3128C34.1521 40.3921 33.799 40.6064 33.4438 40.735C32.8022 41.0135 31.646 41.1678 31.295 41.2749C31.295 41.2749 31.2929 41.2749 31.2907 41.2749C30.8988 41.4099 30.522 41.5299 30.1345 41.6778L29.5725 41.2235C29.6113 40.5185 30.0139 39.8907 30.0355 39.1858L30.6082 39.6443C31.2649 39.9036 32.2101 38.9222 32.4447 38.7422C32.5395 38.6694 32.8086 38.4444 33.3555 38.2237C34.5784 37.7137 35.8165 37.1609 37.0609 36.6102C38.2817 36.0596 39.5025 35.5024 40.7233 34.9603C42.5319 34.1654 52.6492 29.5564 53.6978 29.4043C54.2726 29.2864 53.9971 27.8101 53.9971 27.8101C50.1086 29.2286 43.5826 32.5284 39.8018 34.2125C38.5961 34.7546 37.4011 35.3182 36.2169 35.9288C35.0801 36.5138 33.9519 37.1373 32.8431 37.8144C31.8053 38.2773 31.2455 36.8974 30.7653 36.141C30.5479 35.796 30.3024 35.5024 30.0721 35.3182C29.8847 35.1725 29.7556 35.2689 29.5898 35.2003C29.5553 35.1875 29.607 34.5361 29.607 34.5361L28.9331 33.9918L28.5929 34.3989L28.3862 34.6604L28.7953 34.9903C28.974 34.7932 31.6201 38.6372 30.324 38.8429C30.324 38.8429 29.9192 38.3458 29.7857 38.2665C29.6802 38.3694 29.5166 38.3094 29.3809 38.2301C29.1355 38.5108 28.862 38.8429 28.6123 39.0272C28.3905 38.6351 27.9836 38.6715 28.1967 38.0587C28.3259 38.0587 28.2936 38.2987 28.4637 38.0801L29.2453 37.1138L28.7005 36.6702C28.5972 36.7431 28.4293 36.8566 28.2204 36.9702C27.8802 37.1566 28.0137 37.1202 27.8027 37.2702C27.5917 37.4202 26.8274 37.7609 26.8274 37.7609L26.4204 37.3195C26.3558 37.2488 26.3042 37.1888 26.2611 37.1309L26.2008 37.0816C26.048 36.9573 23.7205 33.7518 22.9841 32.0934C21.5523 30.2614 20.183 28.4101 18.8287 26.5502L15.0134 23.4818C18.7512 28.2836 22.2736 33.3062 25.7939 37.9173C25.7013 37.9216 25.6238 37.928 25.57 37.9344C25.2104 37.9644 24.3965 38.1444 24.1339 38.1316C23.8755 38.1273 23.221 38.4851 23.221 38.4851L23.208 39.1793L23.7119 39.8393L24.5171 39.535L25.0618 39.3143L25.4429 39.6207C25.7767 39.6357 26.0824 39.5115 26.3688 39.3251L25.7767 40.0643L24.459 42.0099L24.2932 42.8284C24.2932 42.8284 24.924 43.3276 25.163 43.2848C25.4085 43.2526 26.0802 42.2113 26.3343 41.967C26.3774 41.9285 26.4312 41.8535 26.4893 41.7613C26.5884 41.6778 26.7477 41.5792 27.047 41.5963C27.525 41.0135 27.8458 40.6193 28.0697 40.3471L28.1149 40.9128C28.1149 40.9128 28.0718 42.3506 28.0805 42.5991C28.0826 42.8584 28.018 44.7654 28.018 44.7654L29.0472 44.6476L29.4886 44.6604L29.7878 44.2919L29.7642 43.0448C30.5586 42.8005 31.1357 42.1234 31.7665 42.267C31.7665 42.3956 35.5258 40.9449 35.5258 40.9449L34.4923 40.3086V40.3128Z" fill="white"/>
<path d="M58.3118 45.9652C58.1073 45.7874 56.3094 44.3711 56.1781 44.1825C56.0489 44.0025 55.009 43.2418 54.4858 42.9312C53.954 42.6119 51.887 41.1827 51.887 41.1827L50.4035 40.1842C50.4035 40.1842 47.9663 38.4379 47.7273 38.3693C47.4797 38.3007 46.4591 37.6386 46.4591 37.6386L45.2986 36.8608L44.4847 37.328L45.4644 37.9601L47.4108 39.2864L49.4239 40.5099L51.2411 41.4291L52.6514 42.5069L54.7312 44.0989L56.5269 45.6545L58.9039 47.5744L60.4003 48.7336L61.4187 48.2151L60.34 47.4244C60.34 47.4244 58.5185 46.1452 58.3118 45.9631V45.9652Z" fill="white"/>
<path d="M78.1158 24.1632L77.1082 23.1968L76.9812 23.1368C78.1567 23.2782 79.1902 23.8761 80.3378 24.1096C80.3335 23.3832 80.2452 23.3811 79.9632 23.154C79.7113 22.9461 78.4345 22.4212 77.3989 22.1962C77.7821 21.9112 78.3656 21.4484 78.3656 21.4484L80.861 21.0627L81.634 20.6577L81.6081 20.4499C81.6081 20.4499 81.2916 19.7106 80.861 19.7685C80.439 19.8285 79.3086 20.0278 79.3086 20.0278L78.85 20.227L79.257 19.7278L78.5852 19.1921C77.8144 19.7513 76.9833 20.242 76.3029 20.9363C76.1092 20.5913 77.1319 19.7192 76.9295 19.4599C76.7271 19.2007 76.3654 18.9328 75.9843 18.7914L76.0661 17.885L75.8013 17.2165C75.8013 17.2165 75.0197 17.1608 74.8281 17.3022C74.6386 17.4436 74.5611 18.5128 74.4707 18.8064C74.3716 19.1021 74.4879 20.4027 74.4879 20.4027C74.4879 20.4027 74.4621 21.5062 74.3953 21.6798C74.3867 21.7012 74.3845 21.7269 74.3867 21.7526C74.2554 21.9176 74.1197 22.0676 73.9755 22.1876L74.3846 22.5176C74.4771 22.4383 74.6128 22.3355 74.7678 22.2197L75.2393 22.3783L75.4762 21.7141C75.8723 21.4419 76.2276 21.2127 76.29 21.1998C76.3998 21.4098 76.5118 21.5277 76.6281 21.5834L76.234 21.9305C76.234 21.9305 76.3245 22.0055 76.4472 22.0955C76.2771 22.1126 76.1458 22.1576 76.0747 22.2433C75.8982 22.464 76.0876 22.7619 75.9111 22.9826C75.7324 23.1947 75.0197 23.214 74.4965 23.3061C74.6881 23.5075 74.5891 23.7154 74.8109 23.8911C75.0326 24.0668 75.4805 24.1396 75.6915 24.3153C76.1328 24.6603 76.8283 26.5116 76.9575 26.6059L77.5022 27.0473L77.9371 26.5116L77.9565 26.5523L78.723 27.1694L79.4206 26.3916L78.5443 25.4638L78.1137 24.161L78.1158 24.1632Z" fill="white"/>
<path d="M69.3657 48.9951L69.4497 48.8901C69.2516 48.7123 69.3485 48.498 69.1354 48.3201C68.8382 48.0866 65.9596 48.1316 65.7895 48.1102L65.4644 48.5087C65.5763 48.6137 65.6043 48.7101 65.5935 48.798L65.361 48.8194L65.3502 49.1837L65.3438 49.1794C65.2168 49.6186 64.8959 49.7215 64.5579 49.7472L64.2823 49.3229C64.5407 49.2651 64.7754 49.2094 64.9175 49.1622C64.8916 48.813 63.1649 47.1224 62.9948 46.9745L58.2494 43.1648C58.0276 42.9891 49.5445 37.178 49.5445 37.178C49.3227 37.0023 47.484 35.9352 47.484 35.9352L53.5578 33.4004C54.0832 33.2569 54.1155 32.7126 54.1564 32.6055C51.2648 33.1326 49.6392 34.5982 47.4496 34.8425C45.9489 35.5088 44.291 35.9053 42.9066 36.5159C42.8678 36.5416 42.829 36.5695 42.7774 36.6059C42.1078 37.013 40.5403 37.6516 39.1064 38.2408C37.6789 38.8301 36.387 39.37 36.2169 39.5886L35.7605 40.1478L35.5581 40.5914C35.6873 40.5828 35.9952 40.5571 36.161 40.5121C37.1234 40.2678 38.4239 39.3593 39.7286 38.7379C41.0549 38.108 41.7224 37.9515 41.7224 37.9515C41.7224 37.9515 44.0972 39.5372 44.319 39.7064C44.319 39.7064 46.1319 41.1506 46.2675 41.1313C46.2675 41.1313 48.707 43.0126 48.9373 43.1883C48.9373 43.1883 59.1903 50.7736 59.2979 50.8528C59.4336 50.8186 60.0321 50.6107 60.1656 50.5679C60.9838 50.3429 61.8084 50.075 62.4522 49.9829C62.4522 50.0643 62.4242 50.1136 62.3467 50.2057C62.1163 50.33 61.8924 50.4521 61.7417 50.5379C61.7159 50.5379 61.6922 50.5379 61.6642 50.5336L61.5802 50.6364C61.2594 50.8507 60.6522 51.3371 60.4283 51.4357C60.1958 51.5406 59.7738 52.162 59.7738 52.162L60.0774 52.7877L60.818 53.1498L61.4058 52.5177L62.4371 51.3414L63.1412 50.6428L63.2596 50.5143L63.3716 50.3857L63.2122 49.7429C63.2122 49.7429 63.1412 49.7815 63.0292 49.8393C63.0508 49.7665 63.0787 49.6872 63.1197 49.5993C63.3199 49.5286 63.785 49.4322 64.207 49.3379L64.1338 49.7579C63.9249 49.7622 63.7376 49.7815 63.6213 49.8822C64.1165 50.8464 63.7031 52.5756 63.2015 53.4348L63.5632 53.7262C63.4792 54.0262 63.4082 54.2748 63.4082 54.2748L63.94 54.6283L64.3749 54.7483L64.7474 54.4655L65.0854 53.0277L65.1931 51.6221L64.9218 50.3L64.7431 50.0257C64.7603 49.9572 64.7775 49.8886 64.7991 49.8222L65.1565 49.9957C65.1672 50.1307 65.1069 50.1757 65.0251 50.3L66.5667 51.5492C66.6808 51.4378 66.7067 51.3714 66.8488 51.3457L68.2634 52.4834C68.3753 52.3699 68.4485 52.3677 68.5734 52.4449L68.905 52.0378L66.0629 49.7536C66.5323 49.7943 67.3203 49.8586 67.3203 49.8586L68.8102 50.0536L69.9148 50.3022L70.382 49.3079L69.6779 49.0422L69.3657 48.9887V48.9951ZM62.5254 50.0386C62.6029 49.8886 62.7838 49.7022 62.9905 49.7108C62.913 49.8586 62.7343 50.0557 62.5254 50.0386ZM62.9926 48.6008C62.9087 48.588 61.8924 48.9051 61.6749 48.9672C61.6426 48.9758 61.408 49.0465 61.3261 49.0722C60.9752 49.1837 60.7663 49.2587 60.6264 49.3187C60.5704 49.3187 59.8448 49.5244 59.6037 49.6893C59.552 49.7001 59.5025 49.7129 59.4444 49.7258C59.4444 49.7258 58.4539 49.0358 56.6776 47.7716C52.0916 44.519 44.291 38.4529 44.2221 38.4015L43.1757 37.448C43.6774 37.2359 44.5321 36.9038 45.8757 36.3981C45.8757 36.3981 53.9691 40.8335 60.1549 45.7125C60.3766 46.0682 61.2508 46.6103 61.4273 46.7795C61.4984 46.8502 61.5824 46.9295 61.6728 47.0152C61.7503 47.3195 62.0194 47.5231 62.1572 47.703C62.2972 47.883 62.8441 48.1487 63.0055 48.3094C63.096 48.3973 63.1735 48.4744 63.2316 48.5344C63.2316 48.5344 63.1369 48.5601 62.9883 48.5987L62.9926 48.6008Z" fill="white"/>
<path d="M66.1297 51.5235L65.5591 51.0607L65.2275 51.4678C65.3826 52.1835 65.4493 52.7941 65.361 53.4627L66.205 54.1376L66.7433 53.4691C66.3407 52.7791 66.1986 52.1663 66.1297 51.5235Z" fill="white"/>
<path d="M17.287 22.9075L18.4195 23.8245C19.3131 24.5445 23.1132 30.1841 23.4211 30.9855L24.2479 31.654L24.7948 30.9833C21.9075 26.7708 18.665 22.2968 15.5753 18.3949L14.9617 19.1491C15.0694 19.3977 14.9337 19.5198 14.7787 19.7298C15.6335 20.4369 16.8155 21.9175 17.287 22.9075Z" fill="white"/>
<path d="M49.3464 11.4825C48.8964 12.9439 48.4443 14.4523 47.9663 15.9908C48.0933 16.1965 48.2785 16.4965 48.5003 16.8286C48.5369 16.8822 48.567 16.9272 48.5972 16.9743C49.2883 15.3051 50.311 12.4018 50.873 10.7776C50.7718 10.7862 50.6598 10.8119 50.5349 10.8783C50.1947 11.0626 49.8503 11.474 49.3486 11.4804L49.3464 11.4825Z" fill="white"/>
<path d="M53.138 7.66207L52.9248 8.1956L53.082 8.76985L53.2478 8.73342C53.2758 8.86627 53.3124 8.99269 53.3726 9.10197C54.2167 8.85556 54.9358 8.50844 55.7109 8.31131C56.0575 8.29631 56.4386 8.27703 56.5893 8.2556C56.9037 8.22131 57.8489 8.34559 57.8489 8.34559L57.7176 7.26352L57.5518 6.53928C57.5518 6.53928 57.0544 6.48786 56.4666 6.74284C55.8853 6.99997 54.4363 7.60421 54.4363 7.60421L53.138 7.66207Z" fill="white"/>
<path d="M49.4972 5.83001C49.4972 5.83001 50.1711 6.70638 50.2292 6.8778C50.255 6.97208 50.4036 7.03208 50.5349 7.0685C50.5349 7.13064 50.5328 7.19492 50.5306 7.25492C50.8859 7.06207 51.1098 7.14993 51.2864 6.92923C51.2907 6.9228 51.295 6.91423 51.3014 6.90566L51.3337 6.8928L51.323 6.8628C51.5383 6.35712 51.3423 4.14584 51.4306 3.68301L50.7589 3.14733L50.4337 3.54588C50.4854 4.04727 50.5156 4.55296 50.5328 5.05649L50.2658 4.57224L49.1354 2.88378L48.5067 2.5238C48.5067 2.5238 47.8587 2.97592 47.8092 3.20519C47.7467 3.43231 48.3582 4.31083 48.4745 4.60438C48.5843 4.8915 49.4993 5.83001 49.4993 5.83001H49.4972Z" fill="white"/>
<path d="M38.8178 3.4238C38.9298 3.32095 39.0095 3.30809 39.1451 3.3938L40.0214 2.31601C40.2044 1.73534 39.9848 1.12038 40.0838 0.601841L39.4185 0.0661621L38.7403 0.906107C39.0439 1.66677 38.5358 2.30316 38.4174 3.10239L38.8178 3.4238Z" fill="white"/>
<path d="M13.896 19.7599L14.7659 18.6907L15.2288 18.1143C15.0759 17.7586 15.3106 17.1415 15.4139 17.0065C15.5926 16.7944 15.5926 16.9229 15.5926 16.9229L15.8984 17.1715C15.808 17.4822 16.456 18.3457 16.5335 18.4121L17.6488 19.3078C18.6974 20.7198 19.7459 22.1233 20.7686 23.5204C23.32 26.9744 25.7659 30.3942 27.9169 33.8525C27.9255 33.859 27.9276 33.8761 27.9341 33.8825C27.9427 33.8825 27.9427 33.874 27.9492 33.874C28.2075 33.7754 28.3195 33.9104 28.5326 34.0647L29.0042 33.4883C27.4023 30.7413 25.6604 28.2943 24.037 26.1409L24.0133 26.1238C20.3122 21.2362 17.2096 17.9257 17.679 16.4494C17.7113 16.3423 17.7608 16.2437 17.8362 16.158C17.9976 15.9544 23.0186 13.4175 28.087 11.0283C33.0886 8.68206 38.1246 6.48792 38.5832 6.85433C38.693 6.93575 41.7073 10.7948 41.7073 10.7948C43.8712 12.5347 52.0399 26.1323 52.5438 26.5373C52.9787 26.8887 52.9162 26.9016 53.6461 26.7773C53.4502 24.0432 51.0861 21.7419 49.6113 19.4599C50.268 17.7436 52.4619 11.5233 52.772 11.1419C52.9507 10.9298 53.2263 11.1098 53.4201 11.0091C53.4201 11.0091 55.4074 12.314 55.5516 12.2883C55.5516 12.2883 71.493 22.0119 71.6394 22.1362C71.7062 22.1876 71.7535 22.2712 71.9172 22.5476L72.3736 21.9798C72.2746 21.7226 72.238 21.5491 72.0248 21.3734C71.803 21.1977 71.6975 21.3969 71.4758 21.2212C71.4758 21.2212 55.1748 10.8762 55.0327 10.8955L52.5782 8.92205C52.4663 9.03347 52.294 8.97347 52.167 8.88776C52.167 8.88776 50.0548 16.803 49.1484 17.9215C48.9718 18.1422 48.9352 18.2086 48.8082 18.2343C48.6962 18.0457 48.3883 17.4651 47.8544 16.7472C47.8544 16.7472 47.0793 15.4016 46.9759 15.2966C48.2053 13.5482 48.1364 11.6776 49.1031 10.4819C49.2797 10.2612 49.3723 10.5419 49.6629 10.4477C50.255 10.3041 50.7675 10.1884 51.0065 10.3748C51.1723 9.89484 51.2734 9.597 51.2734 9.597C50.8342 9.28417 51.2261 8.61778 51.5318 8.38851C51.4285 8.26852 51.3273 8.12281 51.3725 8.05639C51.7557 8.24495 52.1304 8.11424 52.5222 8.41422L52.9851 7.83141C52.9119 7.71356 52.8947 7.6257 52.9055 7.55071C53.0906 7.3193 53.9863 6.21794 53.9863 6.21794L55.1188 4.9066L56.0619 2.84102L54.4234 2.27749L54.0445 2.92887L53.3619 4.49948C53.3361 4.4952 53.3103 4.49091 53.2823 4.48448L52.2639 5.74012C52.2725 5.83654 52.2746 5.93724 52.2703 6.03795L51.5856 6.88218L51.6007 7.78427H51.6072C51.4414 7.98568 51.5038 7.92783 51.3703 7.94497C50.4402 7.30001 49.5725 7.37072 48.595 6.72791C48.2634 6.92718 47.9922 6.95503 47.6929 6.92075C47.7962 7.35358 47.9943 7.64927 48.1278 8.05639C48.7866 8.3928 50.1086 8.3628 50.7739 8.89848C50.9957 9.07418 50.9246 8.99918 50.9505 9.1256C49.4649 9.08489 48.5993 9.16417 48.5993 9.16417C48.5993 9.16417 47.0577 13.3875 46.3946 14.2017C46.218 14.4224 46.2934 14.3603 46.1577 14.3795L45.6625 13.9831C45.6539 13.8481 44.558 12.6718 44.558 12.6718C43.9422 12.164 40.0408 7.00217 39.2916 5.87296L39.5349 5.57727C40.6093 6.00367 42.0884 4.58948 43.3307 5.33943L43.8755 4.66233L43.2188 4.13308C42.5944 4.09022 41.9872 4.18022 41.365 4.26164C41.5286 4.16736 41.6427 4.10094 41.6427 4.10094L43.1822 3.28885L43.109 2.27963L43.5138 1.4204L42.8937 1.05614L42.6762 1.27684C42.4092 1.1997 42.2391 1.2297 41.8236 1.01328C41.52 1.36255 41.1023 1.7161 39.3303 3.76882L39.1688 3.86095L39.1107 4.0238C39.0956 4.04308 39.0806 4.05808 39.0655 4.07737C39.0741 4.07951 39.0806 4.0838 39.0892 4.08594L38.9966 4.34306L38.2516 2.79388C38.2516 2.79388 37.8382 1.6261 37.7048 1.34755C37.5734 1.069 37.0136 0.319045 37.0136 0.319045L35.8617 0.274048L35.7605 0.976858C35.7605 0.976858 35.8682 1.4654 36.2966 1.93679C36.5356 2.20249 36.9619 2.68675 37.2914 3.06386C36.4215 2.94601 35.5022 2.58818 34.6431 2.57961L34.3093 2.9803L34.333 2.99958L33.5795 2.86459L32.8883 3.06601C32.8883 3.06601 32.7677 3.84167 32.8862 4.04094C33.0153 4.24664 34.0768 4.41163 34.3675 4.53377C34.6474 4.64947 35.9651 4.65162 35.9651 4.65162C35.9651 4.65162 37.0653 4.77375 37.2311 4.84875C37.3387 4.9066 37.5368 4.79732 37.6574 4.72018C37.8425 4.77161 38.0256 4.79946 38.2043 4.79518L38.2086 4.80375L38.2258 4.79303C38.4626 4.78446 38.693 4.71804 38.9148 4.56805C38.8782 4.52734 38.8588 4.49091 38.8459 4.45663H38.8502L38.9923 4.37306L38.8696 4.7159L39.481 5.08873C39.481 5.08873 39.5047 5.08873 39.537 5.08873C39.5155 5.16587 39.4983 5.24086 39.4897 5.318C38.7124 4.55091 33.1682 7.94068 31.1013 8.23209C29.7664 8.87705 28.4185 9.54129 27.0599 10.2055C24.6571 11.384 22.237 12.5689 19.8644 13.7217C18.8912 14.8059 17.1299 14.6517 16.3398 15.3716C16.2945 15.4145 16.2493 15.4573 16.2127 15.5088C16.034 15.7209 16.1223 16.1537 15.9457 16.3658C15.5324 16.8822 15.767 16.5715 14.8972 16.4258C14.7336 16.6208 14.6324 16.7708 14.5075 16.7965C14.1565 16.0187 14.2534 16.0787 14.0876 15.6437L14.3611 15.6737L14.3525 15.3245C14.4817 15.3202 14.6001 15.3566 14.684 15.2366C14.5721 15.1252 14.6388 14.9602 14.684 14.8938C14.6948 14.8938 14.7142 14.8959 14.74 14.8981L15.0587 15.0909C15.0587 15.0909 15.485 15.1081 15.7326 14.9709C15.9802 14.8252 17.2268 14.1053 17.2268 14.1053L18.7577 13.2846L18.6931 12.284L19.0979 11.4162L18.4692 11.054L16.9577 12.5925L16.4969 12.8582C16.6197 12.5861 16.7747 12.3097 16.9749 12.0547C16.863 11.9518 16.7725 11.7976 16.8587 11.6712L16.4496 11.3412C16.1934 11.4483 15.9436 11.5683 15.7757 11.7804C15.7455 11.8147 15.5926 12.3611 15.5711 12.3932L15.0005 13.0961L15.0458 11.9026L14.9489 9.87341L14.5915 9.25202C14.5915 9.25202 13.8164 9.30774 13.6441 9.47272C13.4719 9.63557 13.5472 10.7091 13.4891 11.0091C13.4396 11.3155 13.7388 12.5904 13.7388 12.5904C13.7388 12.5904 13.8659 13.6832 13.8228 13.861C13.8034 13.9467 13.8745 14.0581 13.9563 14.1503C12.4836 13.7046 11.4286 13.5353 10.182 13.3618L9.85685 13.7689L10.6922 14.4374C10.7805 14.431 11.1918 14.506 11.6676 14.6131C11.4071 14.5831 11.1616 14.5595 11.0475 14.5552C10.7331 14.5467 9.81378 14.6988 9.81378 14.6988L9.25183 15.6973L9.8267 16.1109C9.8267 16.1109 10.3176 16.2351 10.9312 16.0723C11.5449 15.9094 13.0757 15.5366 13.0757 15.5366L13.5989 15.5945C13.0929 15.7766 12.4276 16.0873 11.8678 16.383C11.3252 16.6701 10.8882 16.9315 10.8064 17.0344L9.92144 18.1186L10.3305 18.4507C11.2176 18.0522 12.0853 17.63 12.9659 17.2636C13.3168 17.1201 13.6764 16.9829 14.0446 16.8608C14.0187 17.0387 13.9434 17.2358 14.0187 17.5186L13.7238 17.8743L13.0391 18.7228C12.9659 19.2864 12.3996 20.0063 13.0412 20.3363L12.7613 20.6834C13.5192 21.6112 14.2685 22.5583 15.0113 23.5032L18.8352 26.5695C17.1881 24.3067 15.5647 22.0419 13.8939 19.7792L13.896 19.7599Z" fill="white"/>
<path d="M7.04273 58.4016H7.7188V52.0249H6.82312L4.48703 56.651L2.14448 52.0249H1.23804V58.4016H1.93348V53.0984L4.25881 57.7267H4.69803L7.03197 53.0984L7.04273 58.4016Z" fill="white"/>
<path d="M9.52307 52.0249V55.7789C9.52307 57.446 10.5393 58.4295 12.223 58.4295C13.9067 58.4295 14.9058 57.446 14.9058 55.7789V52.0249H14.1737V55.7789C14.1737 57.0367 13.4417 57.7652 12.2252 57.7652C11.0087 57.7652 10.2573 57.0367 10.2573 55.7789V52.0249H9.52522H9.52307Z" fill="white"/>
<path d="M17.4314 53.227L21.2768 58.4016H22.0261V52.0249H21.3026V57.2081L17.4594 52.0249H16.6993V58.4016H17.4314V53.227Z" fill="white"/>
<path d="M24.7087 52.0249H23.9767V58.4016H24.7087V52.0249Z" fill="white"/>
<path d="M29.396 57.746C27.9491 57.746 26.7864 56.6082 26.7864 55.2047C26.7864 53.8012 27.9491 52.672 29.396 52.672C30.1 52.672 30.7955 52.972 31.2907 53.4648L31.7299 52.9356C31.1163 52.3613 30.2658 52.0056 29.3874 52.0056C27.5292 52.0056 26.0458 53.4177 26.0458 55.2025C26.0458 56.9874 27.5099 58.4273 29.3594 58.4273C30.2464 58.4273 31.1077 58.0545 31.7385 57.461L31.2907 56.9789C30.7869 57.4524 30.1 57.7438 29.396 57.7438V57.746Z" fill="white"/>
<path d="M33.7883 52.0249H33.0563V58.4016H33.7883V52.0249Z" fill="white"/>
<path d="M34.7592 50.3129L34.0358 49.9829L32.9377 51.2128H33.6246L34.7592 50.3129Z" fill="white"/>
<path d="M38.1375 56.3789C39.7222 56.3789 40.6372 55.569 40.6372 54.1655C40.6372 52.762 39.7222 52.0249 38.1375 52.0249H35.7303V58.4016H36.4624V56.3789H38.1375ZM36.4624 52.6999H38.1095C39.2635 52.6999 39.931 53.2098 39.931 54.1848C39.931 55.1597 39.2635 55.7061 38.1095 55.7061H36.4624V52.6999Z" fill="white"/>
<path d="M42.5858 52.0249H41.8538V58.4016H42.5858V52.0249Z" fill="white"/>
<path d="M50.6318 55.2132C50.6318 53.4176 49.1484 52.0077 47.2817 52.0077C45.4149 52.0077 43.9229 53.4197 43.9229 55.2132C43.9229 57.0066 45.4063 58.4294 47.2817 58.4294C49.157 58.4294 50.6318 57.0088 50.6318 55.2132ZM44.6635 55.2132C44.6635 53.8011 45.8542 52.6805 47.2817 52.6805C48.7091 52.6805 49.8804 53.8011 49.8804 55.2132C49.8804 56.6252 48.7091 57.763 47.2817 57.763C45.8542 57.763 44.6635 56.6252 44.6635 55.2132Z" fill="white"/>
<path d="M3.52676 62.0334H0.988281V70.5486H3.52676V62.0334Z" fill="white"/>
<path d="M8.71352 62.0334H4.96716V70.5486H8.62955C11.4479 70.5486 13.3168 68.8473 13.3168 66.2846C13.3168 63.7219 11.4867 62.0334 8.71567 62.0334H8.71352ZM8.78672 68.5687H7.50564V64.0262H8.66615C9.88695 64.0262 10.7288 64.9368 10.7288 66.3103C10.7288 67.6838 9.94723 68.5687 8.78888 68.5687H8.78672Z" fill="white"/>
<path d="M16.8543 62.0334L13.2048 70.5486H15.8165L16.3289 69.188H19.7825L20.282 70.5486H22.9906L19.4638 62.0334H16.8521H16.8543ZM17.0373 67.341L18.088 64.5597L19.1129 67.341H17.0373Z" fill="white"/>
<path d="M29.4133 66.7946L25.7896 62.0334H23.6172V70.5465H25.9468V65.811L29.5726 70.5465H31.7321V62.0334H29.4133V66.7946Z" fill="white"/>
<path d="M38.7511 65.4211H35.711V62.0334H33.1725V70.5465H35.711V67.3774H38.7511V70.5465H41.2896V62.0334H38.7511V65.4211Z" fill="white"/>
<path d="M45.5613 62.0334L41.9119 70.5486H44.5235L45.036 69.188H48.4895L48.989 70.5486H51.6976L48.1709 62.0334H45.5592H45.5613ZM45.7443 67.341L46.795 64.5597L47.8199 67.341H45.7443Z" fill="white"/>
<path d="M55.5688 66.0404H52.238V67.5703H55.5688V66.0404Z" fill="white"/>
<path d="M59.7565 62.0334L56.1071 70.5486H58.7187L59.2312 69.188H62.6847L63.1842 70.5486H65.8949L62.3682 62.0334H59.7565ZM59.9395 67.341L60.9902 64.5597L62.0151 67.341H59.9395Z" fill="white"/>
<path d="M69.764 66.0404H66.431V67.5703H69.764V66.0404Z" fill="white"/>
<path d="M76.9165 66.7946L73.2907 62.0334H71.1183V70.5465H73.4501V65.811L77.0737 70.5465H79.2354V62.0334H76.9165V66.7946Z" fill="white"/>
<path d="M84.8485 61.9607C82.1637 61.9607 80.1871 63.782 80.1871 66.2847C80.1871 68.7874 82.1637 70.658 84.8485 70.658C87.5334 70.658 89.51 68.7874 89.51 66.2847C89.51 63.782 87.5334 61.9607 84.8485 61.9607ZM84.8852 68.5431C83.7634 68.5431 82.7859 67.5832 82.7859 66.2954C82.7859 65.0076 83.7505 64.0713 84.8852 64.0713C86.0198 64.0713 86.9112 65.0076 86.9112 66.2954C86.9112 67.5832 86.0069 68.5431 84.8852 68.5431Z" fill="white"/>
<path d="M96.1996 62.0334L94.2467 67.9238L92.2939 62.0334H89.5853L92.8559 70.5465H95.4912L98.8005 62.0334H96.1996Z" fill="white"/>
<path d="M104.207 62.0334H101.595L97.9457 70.5486H100.557L101.07 69.188H104.523L105.023 70.5486H107.731L104.205 62.0334H104.207ZM101.778 67.341L102.829 64.5597L103.854 67.341H101.778Z" fill="white"/>
<path d="M65.2705 48.3651L65.9423 47.5337C68.569 39.3892 71.2798 31.0969 74.012 22.9782L73.4242 22.5089L72.8278 23.246C70.3367 31.2448 67.3052 39.7921 64.5988 47.8208L65.2705 48.3651Z" fill="white"/>
<path d="M55.711 27.6022L55.8358 27.4479L57.3559 26.5972C57.3559 26.5972 58.4927 26.1001 58.7619 25.9458C59.0418 25.798 59.7523 25.1895 59.7523 25.1895L59.7178 24.0495L59.0073 23.996C59.0073 23.996 58.5272 24.1331 58.0772 24.5895C57.9394 24.7309 57.737 24.9366 57.5238 25.1509C57.5238 25.063 57.5669 24.9666 57.6186 24.8873L57.2095 24.5574C57.0975 24.6602 56.9511 24.7609 56.8263 24.6731L54.7981 27.1736C54.91 27.2786 54.8411 27.4415 54.7722 27.5914C55.1404 27.5914 55.4354 27.5507 55.7131 27.6043L55.711 27.6022Z" fill="white"/>
<path d="M57.8553 28.3435L58.5185 28.4657L59.9094 28.4935L61.9462 28.365L62.5706 28.0007C62.5706 28.0007 62.4995 27.2229 62.3337 27.0515C62.1615 26.8886 61.0849 26.9808 60.7835 26.9293C60.6156 26.9058 60.1613 26.9893 59.7802 27.0686C58.6197 27.0043 57.4247 27.1286 56.3008 27.4393L55.629 28.2685L56.2082 28.7399C56.5398 28.5407 56.7443 28.6071 56.9553 28.6307C56.9187 28.7614 56.8197 28.9071 56.712 29.0506L55.8034 28.6714L55.6463 28.6028L55.4826 28.5514L54.9401 28.9414C54.9401 28.9414 55.2781 29.2242 55.6312 29.5135L55.403 29.7877C55.6656 30.9748 57.0931 31.984 57.5087 32.9375L58.1568 33.4668L58.8479 32.6097C58.1632 32.2261 57.9759 31.6412 57.8812 31.1119L57.6809 30.9512C57.9565 31.0926 58.4819 31.2062 58.4819 31.2062L58.9512 30.692L58.9986 30.062C59.4012 30.2291 59.7716 30.4541 60.0149 30.6405L60.495 30.0556L59.4809 29.2413C58.6606 29.5563 57.6336 28.9006 57.035 28.7121L57.3451 28.3307C57.5195 28.35 57.6895 28.3521 57.8575 28.3414L57.8553 28.3435Z" fill="white"/>
</g>
<defs>
<clipPath id="clip0_1_249">
<rect width="106.745" height="70.5896" fill="white" transform="translate(0.988281 0.0661621)"/>
</clipPath>
</defs>
</svg>
