<svg width="107" height="72" viewBox="0 0 107 72" fill="none" xmlns="http://www.w3.org/2000/svg">
<g clip-path="url(#clip0_1_245)">
<path d="M24.1382 71.6585H23.6514C23.5786 71.3634 23.4601 71.0993 23.2937 70.8682C23.0316 71.1385 22.73 71.3717 22.393 71.5677C22.054 71.7637 21.5964 71.8607 21.0202 71.8607C20.3879 71.8607 19.8013 71.708 19.2626 71.4026C18.7217 71.0972 18.2912 70.6722 17.9709 70.1254C17.6505 69.5786 17.4883 68.9637 17.4883 68.2786C17.4883 67.7916 17.5756 67.3274 17.7504 66.8858C17.9251 66.4442 18.1726 66.0542 18.4971 65.7199C18.8195 65.3836 19.2043 65.1215 19.6515 64.9296C20.0987 64.7377 20.5875 64.6428 21.12 64.6428C21.9978 64.6428 22.7217 64.9276 23.2958 65.495C23.3706 65.3485 23.4455 65.1339 23.5183 64.8533H23.9842L24.0674 67.4181H23.5703C23.4809 66.9828 23.3186 66.5969 23.0836 66.2564C22.8485 65.918 22.5698 65.658 22.2474 65.4785C21.925 65.299 21.586 65.2082 21.2344 65.2082C20.8413 65.2082 20.4877 65.3155 20.1736 65.5301C19.8595 65.7447 19.6141 66.0707 19.4352 66.5082C19.2563 66.9456 19.169 67.4924 19.169 68.1465C19.169 68.8006 19.2438 69.3144 19.3915 69.7374C19.5392 70.1604 19.7243 70.4803 19.9427 70.6949C20.1611 70.9115 20.3816 71.058 20.6042 71.1344C20.8247 71.2128 21.0327 71.2499 21.2261 71.2499C21.6504 71.2499 22.0332 71.1364 22.3743 70.9115C22.7133 70.6846 22.9941 70.3998 23.2105 70.0552C23.4289 69.7106 23.5724 69.3701 23.6452 69.0297H24.1423V71.6606L24.1382 71.6585Z" fill="white"/>
<path d="M33.151 68.2454C33.151 68.8789 32.9991 69.4732 32.6954 70.0262C32.3917 70.5792 31.9425 71.0228 31.3455 71.3571C30.7506 71.6914 30.0455 71.8585 29.2342 71.8585C28.5707 71.8585 27.9883 71.7512 27.4829 71.5407C26.9795 71.3282 26.5676 71.0435 26.2473 70.6885C25.927 70.3316 25.6919 69.9416 25.538 69.5165C25.3841 69.0914 25.3071 68.6643 25.3071 68.2372C25.3071 67.6161 25.4548 67.0321 25.7481 66.4791C26.0414 65.9282 26.4844 65.4825 27.0731 65.1462C27.6638 64.8098 28.3689 64.6406 29.1906 64.6406C29.9394 64.6406 30.5759 64.7624 31.1021 65.0059C31.6263 65.2493 32.0361 65.5547 32.3293 65.9261C32.6226 66.2955 32.8327 66.6834 32.9596 67.0899C33.0865 67.4964 33.1489 67.8823 33.1489 68.2496L33.151 68.2454ZM31.4724 68.2248C31.4724 67.8348 31.4391 67.4634 31.3704 67.1147C31.3039 66.766 31.1853 66.4503 31.0148 66.1676C30.8463 65.8849 30.6133 65.66 30.32 65.4949C30.0267 65.3277 29.6648 65.2452 29.2322 65.2452C28.6373 65.2452 28.1755 65.3917 27.8406 65.6847C27.5078 65.9777 27.2811 66.345 27.1625 66.7845C27.044 67.224 26.9836 67.7048 26.9836 68.2248C26.9836 68.5116 27.0024 68.8129 27.0398 69.1245C27.0772 69.436 27.1688 69.7559 27.3144 70.0819C27.46 70.41 27.6909 70.6844 28.0091 70.9093C28.3273 71.1342 28.7371 71.2457 29.2426 71.2457C29.748 71.2457 30.1495 71.1301 30.4615 70.899C30.7735 70.6679 31.0023 70.3852 31.1458 70.0509C31.2893 69.7167 31.3788 69.3968 31.4141 69.0935C31.4495 68.7881 31.4682 68.4992 31.4682 68.2248H31.4724Z" fill="white"/>
<path d="M41.5419 65.2348C41.207 65.2348 40.9678 65.2679 40.8222 65.3339C40.6766 65.3999 40.5872 65.499 40.5539 65.629C40.5185 65.759 40.5019 65.9715 40.5019 66.2666V71.7904H40.0256L35.4308 66.3739V70.2118C35.4308 70.5028 35.4495 70.7153 35.4848 70.8453C35.5202 70.9774 35.6138 71.0785 35.7615 71.1486C35.9092 71.2188 36.1505 71.2539 36.4812 71.2539V71.7264H33.8707V71.2539C34.1807 71.2539 34.4074 71.2188 34.5467 71.1486C34.6861 71.0785 34.7735 70.9774 34.8067 70.8453C34.84 70.7133 34.8567 70.5028 34.8567 70.2118V66.6565C34.8567 66.3697 34.8483 66.1531 34.8338 66.0086C34.8171 65.8642 34.7818 65.7383 34.7215 65.631C34.6632 65.5237 34.5675 65.435 34.4344 65.369C34.3013 65.3029 34.1183 65.2575 33.8832 65.2328V64.7603H35.93L39.9278 69.4463V66.2666C39.9278 66.0066 39.9091 65.8064 39.8737 65.6682C39.8384 65.5299 39.7468 65.4226 39.6054 65.3463C39.4619 65.2699 39.2352 65.2328 38.9252 65.2328V64.7603H41.5461V65.2328L41.5419 65.2348Z" fill="white"/>
<path d="M47.3285 69.7311C47.3285 69.9478 47.2828 70.1747 47.1892 70.4162C47.0956 70.6576 46.9562 70.8887 46.7669 71.1095C46.5777 71.3303 46.3405 71.5098 46.0556 71.6501C45.7685 71.7883 45.4378 71.8585 45.0613 71.8585C44.6848 71.8585 44.3187 71.778 43.9506 71.6171C43.5824 71.4561 43.2704 71.2168 43.0145 70.8969C42.9043 71.1507 42.8336 71.386 42.8024 71.6006H42.326V69.2173H42.8024C42.8877 69.5598 43.0083 69.8817 43.1601 70.183C43.312 70.4843 43.5262 70.7442 43.805 70.9609C44.0837 71.1776 44.4248 71.2869 44.8283 71.2869C45.1799 71.2869 45.4627 71.192 45.6749 71.0001C45.8871 70.8082 45.9932 70.5668 45.9932 70.2758C45.9932 70.1108 45.9599 69.9684 45.8954 69.8446C45.8288 69.7208 45.7352 69.6114 45.6104 69.5124C45.4856 69.4154 45.3151 69.3102 45.1008 69.1987C44.8845 69.0873 44.6391 68.9697 44.3624 68.8459C43.9381 68.6478 43.5886 68.4476 43.3161 68.2454C43.0437 68.0432 42.8377 67.8472 42.6963 67.6574C42.5569 67.4675 42.4592 67.2859 42.4072 67.1147C42.3531 66.9434 42.326 66.7701 42.326 66.5967C42.326 66.2852 42.4113 65.9777 42.5798 65.6744C42.7483 65.3711 42.9958 65.1235 43.3224 64.9295C43.649 64.7355 44.0254 64.6385 44.4539 64.6385C44.7826 64.6385 45.0946 64.7108 45.392 64.8573C45.6895 65.0038 45.9453 65.2019 46.1637 65.4557C46.2261 65.3112 46.2823 65.109 46.3343 64.849H46.821V66.7907H46.3343C45.989 65.7322 45.3879 65.2019 44.5309 65.2019C44.221 65.2019 43.9714 65.2823 43.7821 65.4454C43.5928 65.6084 43.4992 65.8168 43.4992 66.0747C43.4992 66.2769 43.5574 66.4523 43.676 66.6009C43.7925 66.7494 43.9485 66.8774 44.1398 66.9847C44.3312 67.0899 44.6411 67.2426 45.0696 67.4407C45.5876 67.6842 45.9932 67.8946 46.2844 68.0721C46.5756 68.2496 46.8231 68.4745 47.0249 68.7448C47.2266 69.0151 47.3285 69.3432 47.3285 69.727V69.7311Z" fill="white"/>
<path d="M55.5738 65.2348C55.2597 65.2348 55.035 65.2699 54.8978 65.3421C54.7605 65.4144 54.6773 65.5175 54.6461 65.6496C54.6149 65.7837 54.6003 65.988 54.6003 66.2666V68.8355C54.6003 69.3081 54.5837 69.663 54.5504 69.9023C54.5171 70.1396 54.4297 70.381 54.2883 70.6245C54.0262 71.0929 53.658 71.4169 53.188 71.5923C52.7158 71.7697 52.2623 71.8564 51.8276 71.8564C51.5073 71.8564 51.1766 71.8131 50.8354 71.7305C50.4943 71.6459 50.1781 71.5097 49.8849 71.3178C49.5916 71.1259 49.369 70.8742 49.2172 70.5626C49.134 70.3914 49.0695 70.218 49.0258 70.0468C48.98 69.8734 48.9551 69.7104 48.9447 69.5577C48.9364 69.405 48.9322 69.2049 48.9322 68.9593L48.9218 66.0561C48.9218 65.7548 48.8615 65.5423 48.7429 65.4185C48.6243 65.2947 48.3456 65.2328 47.9067 65.2328V64.7603H51.449V65.2328C51.1495 65.2328 50.9249 65.2617 50.7751 65.3236C50.6274 65.3834 50.5297 65.4701 50.486 65.5794C50.4402 65.6909 50.4194 65.8498 50.4194 66.054V68.9573C50.4194 69.2544 50.434 69.5165 50.4631 69.7414C50.4922 69.9663 50.538 70.1623 50.6004 70.3295C50.7169 70.606 50.9166 70.8288 51.1994 70.9939C51.4802 71.159 51.7902 71.2436 52.1292 71.2436C52.4911 71.2436 52.8302 71.1548 53.1422 70.9794C53.4542 70.802 53.6705 70.575 53.7912 70.2944C53.8869 70.0757 53.9513 69.8487 53.9805 69.6135C54.0096 69.3782 54.0241 69.0997 54.0241 68.7736V66.2666C54.0241 66.0396 54.0179 65.8724 54.0033 65.7631C53.9888 65.6537 53.9513 65.5567 53.8889 65.4721C53.8265 65.3875 53.7246 65.3277 53.5811 65.2906C53.4376 65.2534 53.24 65.2348 52.9883 65.2348V64.7623H55.5738V65.2348Z" fill="white"/>
<path d="M62.3028 69.403L62.257 71.7305H56.0002V71.258C56.4308 71.258 56.7095 71.1961 56.8343 71.0723C56.9591 70.9485 57.0215 70.736 57.0215 70.4347V66.0561C57.0215 65.8539 57.0007 65.6971 56.9591 65.5856C56.9175 65.4742 56.8219 65.3875 56.6721 65.3256C56.5223 65.2637 56.2977 65.2328 56.0023 65.2328V64.7603H59.5342V65.2328C59.2409 65.2328 59.0184 65.2617 58.8686 65.3194C58.7189 65.3772 58.619 65.4618 58.5733 65.5732C58.5275 65.6847 58.5025 65.8436 58.5025 66.054V70.0612C58.5025 70.3769 58.5171 70.6018 58.5483 70.7401C58.5795 70.8763 58.6648 70.9815 58.8021 71.0517C58.9393 71.1218 59.1661 71.1569 59.4802 71.1569C59.8774 71.1569 60.2248 71.1259 60.5243 71.0661C60.8239 71.0063 61.0984 70.8474 61.3522 70.5895C61.606 70.3315 61.764 69.9333 61.8264 69.3989H62.3028V69.403Z" fill="white"/>
<path d="M69.2293 66.7412H68.7363C68.6906 66.3099 68.5949 65.9901 68.4493 65.7858C68.3016 65.5794 68.1435 65.4536 67.975 65.4061C67.8066 65.3587 67.611 65.3339 67.3905 65.3339H66.5003V70.4368C66.5003 70.639 66.5211 70.7958 66.5627 70.9072C66.6043 71.0187 66.7 71.1053 66.8518 71.1672C67.0037 71.2291 67.2262 71.2601 67.5195 71.2601V71.7326H63.998V71.2601C64.4286 71.2601 64.7073 71.1982 64.8321 71.0744C64.9569 70.9506 65.0193 70.738 65.0193 70.4368V65.3339H64.2726C63.9793 65.3339 63.7359 65.3566 63.5425 65.4041C63.349 65.4494 63.1785 65.5774 63.0329 65.7837C62.8852 65.9901 62.802 66.3099 62.7812 66.7412H62.2882V64.7623H69.2293V66.7412Z" fill="white"/>
<path d="M73.2792 71.7305H69.7161V71.258C70.0135 71.258 70.2382 71.2291 70.39 71.1734C70.5418 71.1177 70.6417 71.0331 70.6874 70.9196C70.7332 70.8061 70.7582 70.6452 70.7582 70.4368V66.0582C70.7582 65.7569 70.6958 65.5444 70.5689 65.4206C70.442 65.2968 70.1591 65.2349 69.7161 65.2349V64.7623H73.2792V65.2349C72.9817 65.2349 72.7571 65.2637 72.6052 65.3215C72.4534 65.3793 72.3536 65.4639 72.3078 65.5753C72.262 65.6867 72.2371 65.8456 72.2371 66.0561V70.4347C72.2371 70.6328 72.26 70.7896 72.3036 70.9031C72.3494 71.0166 72.4451 71.1033 72.5907 71.1652C72.7363 71.2271 72.9651 71.258 73.2771 71.258V71.7305H73.2792Z" fill="white"/>
<path d="M81.3851 65.2348C81.0502 65.2348 80.811 65.2679 80.6654 65.3339C80.5198 65.3999 80.4303 65.499 80.397 65.629C80.3617 65.759 80.345 65.9715 80.345 66.2666V71.7904H79.8687L75.2739 66.3739V70.2118C75.2739 70.5028 75.2926 70.7153 75.328 70.8453C75.3633 70.9774 75.4569 71.0785 75.6046 71.1486C75.7523 71.2188 75.9936 71.2539 76.3243 71.2539V71.7264H73.7139V71.2539C74.0238 71.2539 74.2505 71.2188 74.3899 71.1486C74.5292 71.0785 74.6166 70.9774 74.6499 70.8453C74.6832 70.7133 74.6998 70.5028 74.6998 70.2118V66.6565C74.6998 66.3697 74.6915 66.1531 74.6769 66.0086C74.6603 65.8642 74.6249 65.7383 74.5646 65.631C74.5064 65.5237 74.4107 65.435 74.2776 65.369C74.1444 65.3029 73.9614 65.2575 73.7263 65.2328V64.7603H75.7731L79.7709 69.4463V66.2666C79.7709 66.0066 79.7522 65.8064 79.7169 65.6682C79.6815 65.5299 79.59 65.4226 79.4485 65.3463C79.305 65.2699 79.0783 65.2328 78.7684 65.2328V64.7603H81.3892V65.2328L81.3851 65.2348Z" fill="white"/>
<path d="M89.6885 68.9821C89.4888 69.0027 89.337 69.0337 89.2351 69.077C89.1332 69.1203 89.0624 69.1925 89.025 69.2978C88.9876 69.403 88.9688 69.564 88.9688 69.7827V71.4169C88.4675 71.4169 87.9267 71.483 87.3422 71.6129C86.92 71.7058 86.6059 71.7698 86.3937 71.8049C86.1837 71.8399 85.9341 71.8585 85.647 71.8585C84.8878 71.8585 84.2367 71.681 83.6939 71.3282C83.151 70.9754 82.7454 70.5214 82.4749 69.9663C82.2045 69.4113 82.0673 68.8397 82.0673 68.2557C82.0673 67.5851 82.2274 66.9723 82.5498 66.4193C82.8702 65.8663 83.3049 65.4309 83.8561 65.1131C84.4052 64.7954 85.0064 64.6385 85.6595 64.6385C86.4541 64.6385 87.1779 64.9109 87.829 65.4557C87.908 65.3092 87.9725 65.1069 88.0203 64.849H88.5237L88.5757 67.1312H88.0994C88.0266 66.7845 87.8914 66.4688 87.6896 66.1799C87.4899 65.8931 87.2403 65.6641 86.9408 65.4969C86.6413 65.3298 86.3126 65.2452 85.9549 65.2452C85.6928 65.2452 85.4348 65.2906 85.1832 65.3814C84.9315 65.4722 84.6943 65.629 84.4759 65.8539C84.2575 66.0788 84.0807 66.3842 83.9476 66.7721C83.8145 67.1601 83.7479 67.6367 83.7479 68.2062C83.7479 68.6932 83.7999 69.1595 83.9039 69.6094C84.0079 70.0592 84.218 70.443 84.5363 70.7649C84.8545 71.0868 85.3038 71.2477 85.8821 71.2477C86.3376 71.2477 86.6829 71.1776 86.9179 71.0352C87.153 70.8928 87.3048 70.7195 87.3755 70.5131C87.4462 70.3068 87.4816 70.0778 87.4816 69.824C87.4816 69.5846 87.4629 69.4092 87.4275 69.2998C87.3922 69.1905 87.3069 69.11 87.1738 69.0584C87.0406 69.0068 86.8368 68.9821 86.5601 68.9821V68.5096H89.6885V68.9821Z" fill="white"/>
<path d="M4.5276 43.899C4.05959 43.899 3.64358 43.9465 3.27749 44.0393C2.9114 44.1342 2.58276 44.2952 2.29363 44.5284C2.00243 44.7595 1.7445 45.0834 1.51778 45.4961C1.29105 45.9088 1.08305 46.435 0.893765 47.0726H0.64624V43.637H12.5149V47.0726H12.2695C12.0802 46.435 11.8722 45.9088 11.6455 45.4961C11.4188 45.0834 11.1588 44.7615 10.8696 44.5284C10.5784 44.2973 10.2519 44.1342 9.88578 44.0393C9.51969 43.9444 9.10368 43.899 8.63567 43.899H7.95342V56.7418H9.69442V57.0039H3.46677V56.7418H5.20777V43.899H4.52552H4.5276Z" fill="white"/>
<path d="M17.5113 48.9502V56.7417H18.7801V57.0038H13.9336V56.7417H15.2024V49.2123H13.9336V48.9502H17.5113ZM15.4104 43.9732C15.6746 43.7112 15.9908 43.5791 16.3568 43.5791C16.7229 43.5791 17.0391 43.7112 17.3033 43.9732C17.5674 44.2353 17.7005 44.5489 17.7005 44.9121C17.7005 45.2752 17.5674 45.5889 17.3033 45.8509C17.0391 46.113 16.7229 46.2451 16.3568 46.2451C15.9908 46.2451 15.6746 46.113 15.4104 45.8509C15.1463 45.5889 15.0131 45.2752 15.0131 44.9121C15.0131 44.5489 15.1463 44.2353 15.4104 43.9732Z" fill="white"/>
<path d="M23.5308 48.9503V50.2833H23.5682C23.6431 50.1574 23.745 50.0109 23.8719 49.8417C23.9988 49.6725 24.1652 49.5095 24.3732 49.3527C24.5812 49.1959 24.8329 49.0617 25.1303 48.9483C25.4257 48.8348 25.7835 48.7791 26.1995 48.7791C26.6404 48.7791 27.0107 48.8265 27.3061 48.9194C27.6014 49.0143 27.8489 49.1319 28.0445 49.2763C28.24 49.4208 28.3981 49.5797 28.5166 49.7551C28.6373 49.9304 28.7475 50.1058 28.8474 50.2812C29.0367 49.9428 29.2488 49.6766 29.4818 49.4827C29.7147 49.2887 29.9519 49.1381 30.1911 49.0329C30.4303 48.9276 30.657 48.8575 30.8733 48.8265C31.0876 48.7956 31.2644 48.7791 31.4037 48.7791C32.1234 48.7791 32.6788 48.8864 33.0698 49.0989C33.4609 49.3114 33.7459 49.5652 33.9227 49.8603C34.0995 50.1554 34.2035 50.4649 34.2347 50.7888C34.2659 51.1149 34.2825 51.3893 34.2825 51.6142V56.7398H35.5326V57.0018H30.8567V56.7398H31.9737V50.9188C31.9737 50.3927 31.8759 49.9903 31.6804 49.7076C31.4849 49.4249 31.1604 49.2846 30.7048 49.2846C30.5655 49.2846 30.3949 49.3217 30.1932 49.3981C29.9914 49.4724 29.7959 49.5859 29.6066 49.7365C29.4173 49.8871 29.2571 50.0831 29.124 50.3287C28.9909 50.5722 28.9243 50.8631 28.9243 51.2015V56.7398H30.0413V57.0018H25.4798V56.7398H26.6155V50.7682C26.6155 50.2173 26.4948 49.8335 26.2556 49.6127C26.0164 49.394 25.7502 49.2846 25.4611 49.2846C24.9556 49.2846 24.5146 49.5033 24.1361 49.9408C24.0342 50.0666 23.9468 50.1946 23.8719 50.3266C23.797 50.4587 23.7367 50.6093 23.693 50.7765C23.6493 50.9457 23.6181 51.1396 23.5973 51.3583C23.5786 51.5771 23.5682 51.8432 23.5682 52.1569V56.7377H24.6852V56.9998H20.0093V56.7377H21.2594V49.2082H20.0093V48.9462H23.5308V48.9503Z" fill="white"/>
<path d="M39.2601 53.137C39.2601 53.5868 39.2788 54.0408 39.3163 54.4989C39.3537 54.9549 39.4556 55.3696 39.6199 55.739C39.7843 56.1084 40.0235 56.4117 40.3396 56.649C40.6558 56.8863 41.0968 57.006 41.6646 57.006C42.1701 57.006 42.5944 56.9131 42.9418 56.7233C43.2891 56.5355 43.572 56.3188 43.7946 56.0753C44.0151 55.8319 44.1794 55.5904 44.2876 55.3531C44.3936 55.1158 44.454 54.9405 44.4664 54.827L44.7306 54.9219C44.6682 55.1592 44.56 55.413 44.4082 55.6833C44.2564 55.9515 44.0484 56.2033 43.7842 56.4344C43.52 56.6655 43.1914 56.8594 42.8003 57.0163C42.4093 57.1731 41.935 57.2515 41.3817 57.2515C40.7244 57.2515 40.1129 57.1545 39.5451 56.9606C38.9772 56.7666 38.4822 56.486 38.0599 56.1166C37.6377 55.7473 37.3049 55.2974 37.0657 54.7651C36.8265 54.2327 36.7058 53.6281 36.7058 52.9534C36.7058 52.4148 36.8202 51.8886 37.0469 51.3769C37.2737 50.8631 37.5857 50.4092 37.983 50.015C38.3802 49.6209 38.8462 49.3011 39.3828 49.0576C39.9195 48.8141 40.4956 48.6924 41.1155 48.6924C41.5565 48.6924 41.9995 48.7605 42.4405 48.8987C42.8814 49.037 43.2787 49.2495 43.6323 49.5363C43.986 49.8252 44.2751 50.1966 44.5039 50.6526C44.7306 51.1107 44.845 51.6575 44.845 52.2951H39.2622V53.1411L39.2601 53.137ZM42.2886 50.7703C42.2886 50.632 42.2824 50.4628 42.2699 50.2627C42.2574 50.0625 42.2138 49.8623 42.1368 49.6622C42.0619 49.462 41.9371 49.2928 41.7686 49.1546C41.5981 49.0163 41.3609 48.9482 41.0593 48.9482C40.6308 48.9482 40.298 49.0494 40.0651 49.2474C39.8321 49.4476 39.6574 49.7014 39.5451 50.0089C39.4307 50.3163 39.3579 50.6465 39.3267 51.0034C39.2955 51.3604 39.2726 51.7009 39.2601 52.0269H42.2886V50.7682V50.7703Z" fill="white"/>
<path d="M56.6367 52.6211C56.826 52.0021 56.9217 51.2159 56.9217 50.2647C56.9217 49.7385 56.8801 49.3155 56.799 48.9977C56.7158 48.6779 56.593 48.4323 56.4287 48.257C56.2644 48.0816 56.0605 47.9639 55.813 47.9C55.5676 47.8381 55.2805 47.8051 54.9519 47.8051V47.543H58.775V47.8051C58.4838 47.8546 58.2446 47.9082 58.0553 47.9639C57.866 48.0197 57.7121 48.127 57.5915 48.2838C57.4708 48.4406 57.3834 48.6655 57.3273 48.9606C57.2711 49.2557 57.2295 49.6704 57.2046 50.209C57.1921 50.4586 57.1692 50.7558 57.138 51.1004C57.1068 51.445 57.0569 51.8019 56.9862 52.1713C56.9175 52.5406 56.8218 52.9038 56.7033 53.2608C56.5826 53.6178 56.4287 53.9396 56.2394 54.2285L57.111 55.7493C57.1609 55.838 57.2503 55.9494 57.3751 56.0877C57.502 56.2259 57.6788 56.294 57.9055 56.294C58.0948 56.294 58.2467 56.2321 58.359 56.1062C58.4734 55.9804 58.5649 55.838 58.6336 55.675C58.7022 55.512 58.748 55.3552 58.7667 55.2045C58.7854 55.0539 58.7958 54.9549 58.7958 54.9033C58.7958 54.8414 58.7916 54.7836 58.7875 54.7341C58.7812 54.6845 58.7646 54.6288 58.7396 54.5649H59.0038C59.0163 54.5896 59.0288 54.6309 59.0412 54.6866C59.0537 54.7423 59.06 54.8022 59.06 54.8641C59.06 54.9136 59.0475 55.0683 59.0225 55.3242C58.9976 55.5801 58.906 55.8525 58.748 56.1413C58.5899 56.4302 58.3444 56.6902 58.0095 56.9213C57.6747 57.1524 57.2046 57.268 56.5993 57.268C56.0439 57.268 55.6154 57.1586 55.3117 56.9399C55.008 56.7212 54.7439 56.4612 54.5172 56.1599C54.3279 56.3105 54.1427 56.4508 53.9597 56.5829C53.7767 56.715 53.5687 56.8305 53.3357 56.9296C53.1027 57.0307 52.8344 57.1111 52.5307 57.173C52.227 57.235 51.8734 57.268 51.4699 57.268C50.511 57.268 49.7351 57.1153 49.1423 56.8078C48.5495 56.5004 48.0857 56.131 47.7508 55.6998C47.4159 55.2685 47.1892 54.8207 47.0685 54.3565C46.9479 53.8943 46.8896 53.5001 46.8896 53.1741C46.8896 52.5984 47.0061 52.0826 47.2391 51.6245C47.4721 51.1685 47.7695 50.7537 48.1294 50.3844C48.4892 50.015 48.8823 49.6828 49.3129 49.3898C49.7414 49.0947 50.1574 48.8244 50.563 48.5727C50.3612 48.0465 50.2094 47.6235 50.1095 47.3057C50.0076 46.9859 49.9577 46.664 49.9577 46.338C49.9577 45.95 50.0367 45.5766 50.1948 45.2196C50.3529 44.8626 50.563 44.5428 50.8292 44.2621C51.0934 43.9795 51.3971 43.7545 51.7382 43.5853C52.0793 43.4161 52.4267 43.3315 52.7782 43.3315C53.0174 43.3315 53.2442 43.3666 53.4605 43.4347C53.6747 43.5028 53.864 43.6142 54.0283 43.7628C54.1927 43.9134 54.3216 44.1095 54.4173 44.355C54.513 44.5985 54.5588 44.8956 54.5588 45.2464C54.5588 45.622 54.4548 46.0202 54.2467 46.4391C54.0387 46.8579 53.5936 47.2933 52.9114 47.7432L56.0917 53.9211C56.2685 53.6714 56.4516 53.236 56.6409 52.6149L56.6367 52.6211ZM50.8251 49.1277C50.7502 48.9585 50.692 48.843 50.6545 48.7811C50.3904 48.9812 50.1595 49.1628 49.9639 49.3258C49.7684 49.4888 49.6041 49.6601 49.471 49.8417C49.3379 50.0233 49.2401 50.2234 49.1777 50.4421C49.1153 50.6609 49.0841 50.9208 49.0841 51.2221C49.0841 51.447 49.1278 51.7442 49.2172 52.1135C49.3046 52.4829 49.4294 52.8749 49.5854 53.2876C49.7435 53.7003 49.9327 54.113 50.1532 54.5277C50.3737 54.9404 50.6129 55.3139 50.8729 55.6461C51.1308 55.9783 51.4096 56.2507 51.7049 56.4632C52.0003 56.6758 52.3019 56.7831 52.6035 56.7831C52.9446 56.7831 53.2504 56.7046 53.5208 56.5478C53.7912 56.391 54.0845 56.1888 54.4007 55.937C54.2738 55.7617 54.176 55.6152 54.1074 55.4955C54.0387 55.3758 53.9722 55.2479 53.9077 55.1096L51.0684 49.6456C50.9811 49.4703 50.8979 49.299 50.823 49.1298L50.8251 49.1277ZM54.2322 44.6872C54.1823 44.4871 54.1053 44.3055 54.0055 44.1425C53.9035 43.9795 53.7746 43.8495 53.6186 43.7484C53.4605 43.6472 53.2691 43.5977 53.0403 43.5977C53.0029 43.5977 52.9176 43.6039 52.7845 43.6163C52.6514 43.6287 52.512 43.6761 52.3685 43.7566C52.2229 43.8391 52.0939 43.9691 51.9795 44.1507C51.8651 44.3323 51.8089 44.5861 51.8089 44.9121C51.8089 45.0999 51.8381 45.3042 51.8942 45.5229C51.9504 45.7416 52.0273 45.9665 52.1209 46.1997C52.2145 46.4308 52.3227 46.664 52.4434 46.8951C52.564 47.1262 52.6805 47.3367 52.7928 47.5244C52.9197 47.4378 53.0694 47.3305 53.2463 47.2046C53.4231 47.0787 53.5895 46.926 53.7475 46.7445C53.9056 46.5629 54.0367 46.3545 54.1448 46.1151C54.2509 45.8778 54.305 45.6013 54.305 45.2897C54.305 45.0896 54.28 44.8894 54.2301 44.6893L54.2322 44.6872Z" fill="white"/>
<path d="M67.4447 56.7417V57.0038H61.217V56.7417H62.958V43.8989H61.217V43.6369H62.958C63.6008 43.6369 64.2456 43.6286 64.8883 43.608C65.531 43.5894 66.1759 43.5791 66.8186 43.5791C67.3864 43.5791 67.998 43.6266 68.6553 43.7194C69.3105 43.8143 69.9178 43.9877 70.4732 44.2456C71.0286 44.5015 71.4924 44.8584 71.8648 45.3165C72.2371 45.7746 72.4222 46.3647 72.4222 47.0911C72.4222 47.5801 72.3016 48.0402 72.0624 48.4715C71.8232 48.9028 71.4571 49.2783 70.9641 49.5981C70.4711 49.918 69.8534 50.1718 69.1087 50.3595C68.3641 50.5473 67.4863 50.6422 66.4775 50.6422H65.7016V56.7459H67.4426L67.4447 56.7417ZM66.2903 50.376C67.3636 50.376 68.1394 50.1346 68.6178 49.6538C69.0962 49.171 69.3375 48.3559 69.3375 47.2025C69.3375 46.113 69.1295 45.2814 68.7135 44.7057C68.2975 44.13 67.5404 43.8412 66.4421 43.8412C66.3027 43.8412 66.1696 43.8473 66.0448 43.8597C65.9179 43.8721 65.8056 43.8845 65.7037 43.8969V50.376H66.2903Z" fill="white"/>
<path d="M77.0982 43.4678V56.7439H78.367V57.006H73.5205V56.7439H74.7893V43.7319H73.5205V43.4698H77.0982V43.4678Z" fill="white"/>
<path d="M87.6314 57.1751C87.2965 57.2246 86.9845 57.2494 86.6954 57.2494C86.0526 57.2494 85.5763 57.1359 85.2664 56.911C84.9564 56.6861 84.7651 56.3724 84.6881 55.9721H84.6507C84.4489 56.4735 84.1702 56.8119 83.8187 56.9853C83.4651 57.1607 82.9534 57.2473 82.2857 57.2473C81.982 57.2473 81.6741 57.2164 81.358 57.1545C81.0418 57.0926 80.7527 56.9914 80.4864 56.8532C80.2223 56.7149 80.006 56.5251 79.8437 56.2796C79.6794 56.0361 79.5983 55.7389 79.5983 55.3882C79.5983 55.0374 79.6711 54.7217 79.8167 54.4782C79.9623 54.2347 80.1516 54.0284 80.3845 53.8592C80.6175 53.69 80.8837 53.5517 81.1791 53.4465C81.4745 53.3412 81.7823 53.2381 82.0964 53.137C82.6143 52.9863 83.0324 52.8584 83.3548 52.7511C83.6772 52.6438 83.9247 52.5324 84.1016 52.4127C84.2784 52.293 84.4011 52.1589 84.4697 52.0083C84.5384 51.8576 84.5737 51.6637 84.5737 51.4264V50.2812C84.5737 49.9428 84.4905 49.6374 84.3283 49.3609C84.164 49.0864 83.854 48.9482 83.4006 48.9482C83.1094 48.9482 82.8577 49.0142 82.6434 49.1442C82.4292 49.2763 82.321 49.5177 82.321 49.8664C82.321 49.9036 82.3273 49.9696 82.3398 50.0624C82.3522 50.1574 82.3647 50.2605 82.3772 50.372C82.3897 50.4834 82.4022 50.5907 82.4146 50.6918C82.4271 50.7929 82.4334 50.861 82.4334 50.8981C82.4334 51.0859 82.3897 51.2324 82.3002 51.3397C82.2129 51.447 82.1068 51.5254 81.9882 51.5749C81.8676 51.6245 81.7428 51.6534 81.6097 51.6595C81.4765 51.6657 81.3663 51.6699 81.2789 51.6699C81.1521 51.6699 81.0231 51.6595 80.89 51.641C80.7568 51.6224 80.6404 51.5791 80.5405 51.5089C80.4386 51.4408 80.3533 51.3438 80.2847 51.218C80.216 51.0921 80.1807 50.925 80.1807 50.7104C80.1807 50.3843 80.2722 50.0934 80.4552 49.8375C80.6383 49.5817 80.8817 49.3671 81.1833 49.1999C81.4869 49.0307 81.8301 48.9028 82.215 48.8141C82.5998 48.7274 83.0012 48.682 83.4172 48.682C83.8956 48.682 84.347 48.7191 84.7713 48.7955C85.1936 48.8698 85.5597 49.008 85.8696 49.2082C86.1795 49.4083 86.425 49.6807 86.608 50.0253C86.791 50.3699 86.8826 50.8053 86.8826 51.3294V55.9866C86.8826 56.2239 86.9179 56.4343 86.9866 56.6159C87.0552 56.7975 87.2299 56.8883 87.5066 56.8883C87.6709 56.8883 87.8061 56.8573 87.9143 56.7934C88.0203 56.7315 88.1264 56.6427 88.2263 56.5313L88.3968 56.7005C88.22 56.9626 87.9642 57.1194 87.6293 57.171L87.6314 57.1751ZM84.5363 52.3487C84.5113 52.423 84.4635 52.4952 84.3948 52.5654C84.3262 52.6355 84.2014 52.7119 84.0267 52.8006C83.7875 52.9141 83.5462 53.0235 83.307 53.1287C83.0678 53.236 82.8535 53.3701 82.6642 53.5331C82.475 53.6961 82.321 53.8963 82.2004 54.1336C82.0798 54.3709 82.0194 54.6783 82.0194 55.0539C82.0194 55.2045 82.0298 55.3799 82.0486 55.5801C82.0673 55.7802 82.1172 55.9742 82.2004 56.162C82.2815 56.3497 82.4063 56.5086 82.5686 56.6407C82.7329 56.7727 82.9596 56.8388 83.2508 56.8388C83.4151 56.8388 83.5753 56.8016 83.7334 56.7253C83.8915 56.651 84.0329 56.5354 84.1598 56.3786C84.2867 56.2218 84.3865 56.0154 84.4635 55.7596C84.5384 55.5037 84.5779 55.1921 84.5779 54.831V52.3529H84.5404L84.5363 52.3487Z" fill="white"/>
<path d="M89.5887 51.5213C89.7905 51.0199 90.09 50.5598 90.4873 50.1409C90.8846 49.722 91.3713 49.3753 91.9454 49.0988C92.5195 48.8244 93.1851 48.6862 93.9422 48.6862C94.4207 48.6862 94.8575 48.7357 95.2485 48.8368C95.6396 48.9379 95.9765 49.0782 96.2615 49.2598C96.5465 49.4414 96.7669 49.6601 96.9229 49.916C97.081 50.1718 97.1601 50.4566 97.1601 50.7702C97.1601 51.1829 97.0519 51.4739 96.8377 51.6431C96.6234 51.8123 96.3197 51.8969 95.9287 51.8969C95.6375 51.8969 95.3712 51.8432 95.1237 51.738C94.8783 51.6307 94.7555 51.4099 94.7555 51.0715C94.7555 51.022 94.7722 50.9332 94.8034 50.8094C94.8346 50.6836 94.8658 50.5536 94.897 50.4153C94.9282 50.2771 94.9594 50.1471 94.9927 50.0212C95.0239 49.8953 95.0405 49.8087 95.0405 49.7591C95.0405 49.5095 94.9303 49.3114 94.7098 49.1669C94.4893 49.0225 94.2147 48.9503 93.8861 48.9503C93.4326 48.9503 93.0728 49.0576 92.8065 49.2701C92.5424 49.4826 92.3365 49.7674 92.1909 50.1244C92.0452 50.4813 91.9516 50.894 91.9059 51.3645C91.8622 51.835 91.8393 52.3322 91.8393 52.8564C91.8393 53.3454 91.858 53.8324 91.8955 54.3214C91.9329 54.8104 92.0348 55.2541 92.1992 55.6544C92.3635 56.0547 92.6027 56.3807 92.9189 56.6304C93.235 56.88 93.6635 57.0059 94.2064 57.0059C94.7493 57.0059 95.1591 56.9151 95.5127 56.7335C95.8663 56.552 96.1492 56.3394 96.3634 56.0959C96.5777 55.8525 96.7378 55.6069 96.846 55.3634C96.9541 55.1199 97.0186 54.9404 97.0457 54.829L97.3098 54.9239C97.2474 55.1488 97.1497 55.3964 97.0165 55.6647C96.8834 55.935 96.6921 56.1847 96.4383 56.4158C96.1866 56.6469 95.86 56.845 95.4628 57.008C95.0655 57.171 94.5642 57.2515 93.9589 57.2515C93.7946 57.2515 93.5637 57.235 93.2683 57.204C92.9709 57.1731 92.6505 57.1029 92.3032 56.9977C91.9558 56.8924 91.6064 56.7439 91.2528 56.5561C90.8992 56.3683 90.5747 56.1145 90.2772 55.7947C89.9798 55.4749 89.7406 55.0849 89.5575 54.6206C89.3745 54.1584 89.283 53.6074 89.283 52.9678C89.283 52.5056 89.3849 52.0227 89.5866 51.5213H89.5887Z" fill="white"/>
<path d="M100.946 53.137C100.946 53.5868 100.965 54.0408 101.002 54.4989C101.039 54.9549 101.141 55.3696 101.306 55.739C101.47 56.1084 101.709 56.4117 102.025 56.649C102.341 56.8863 102.782 57.006 103.35 57.006C103.856 57.006 104.28 56.9131 104.627 56.7233C104.975 56.5355 105.258 56.3188 105.478 56.0753C105.699 55.8319 105.863 55.5904 105.971 55.3531C106.077 55.1158 106.138 54.9405 106.15 54.827L106.414 54.9219C106.352 55.1592 106.244 55.413 106.092 55.6833C105.94 55.9515 105.732 56.2033 105.468 56.4344C105.204 56.6655 104.875 56.8594 104.484 57.0163C104.093 57.1731 103.619 57.2515 103.063 57.2515C102.406 57.2515 101.794 57.1545 101.227 56.9606C100.659 56.7666 100.164 56.486 99.7414 56.1166C99.3192 55.7473 98.9864 55.2974 98.7472 54.7651C98.508 54.2327 98.3873 53.6281 98.3873 52.9534C98.3873 52.4148 98.5017 51.8886 98.7285 51.3769C98.9552 50.8631 99.2672 50.4092 99.6645 50.015C100.062 49.6209 100.53 49.3011 101.064 49.0576C101.601 48.8141 102.177 48.6924 102.797 48.6924C103.238 48.6924 103.681 48.7605 104.122 48.8987C104.563 49.037 104.96 49.2495 105.314 49.5363C105.667 49.8252 105.957 50.1966 106.185 50.6526C106.412 51.1107 106.527 51.6575 106.527 52.2951H100.942V53.1411L100.946 53.137ZM103.974 50.7703C103.974 50.632 103.968 50.4628 103.956 50.2627C103.943 50.0625 103.899 49.8623 103.822 49.6622C103.748 49.462 103.623 49.2928 103.454 49.1546C103.284 49.0163 103.047 48.9482 102.745 48.9482C102.317 48.9482 101.984 49.0494 101.751 49.2474C101.518 49.4476 101.343 49.7014 101.231 50.0089C101.116 50.3163 101.044 50.6465 101.012 51.0034C100.981 51.3604 100.958 51.7009 100.946 52.0269H103.974V50.7682V50.7703Z" fill="white"/>
<path d="M71.145 60.8501H36.0298V61.0564H71.145V60.8501Z" fill="white"/>
<path d="M46.0826 11.1007C46.0826 13.4737 48.9032 16.3873 51.6322 19.2018C51.886 19.4638 52.1439 19.73 52.3997 19.9962C52.6556 19.6949 52.9093 19.3957 53.1527 19.0986C51.7403 17.4479 50.9915 16.183 50.7336 15.0336C50.3904 13.4964 52.7429 10.1165 53.2172 9.45412L53.6165 8.89906L54.0471 9.43142C54.5754 10.0835 57.1942 13.4159 56.8531 14.9098C56.5952 16.0365 55.8671 17.3302 54.5047 19.0697C54.7398 19.3297 54.9852 19.5938 55.2348 19.8579C55.4095 19.6557 55.5863 19.4535 55.7611 19.2534C58.4194 16.1933 61.1692 13.028 61.0943 10.6282C60.9903 7.38037 56.8697 3.53001 53.4917 3.52588C50.0306 3.52588 46.0889 7.56195 46.0847 11.1028L46.0826 11.1007Z" fill="white"/>
<path d="M54.0201 31.4153C55.0913 29.8182 56.2748 27.6474 56.1043 26.8757C55.8796 25.8667 55.1641 24.6678 53.8641 23.1265C52.9759 24.2717 51.9504 25.7553 51.6634 27.014C51.5136 27.6681 52.7055 29.6923 54.0201 31.4153Z" fill="white"/>
<path d="M53.6665 10.6283C52.6744 12.114 51.5906 14.1052 51.7487 14.8129C51.9567 15.7435 52.6161 16.8537 53.8101 18.2754C54.6337 17.2106 55.5718 15.8426 55.8381 14.6829C55.9754 14.0845 54.8813 12.2254 53.6665 10.6283Z" fill="white"/>
<path d="M53.8495 19.8889L53.8453 19.893V19.8889C53.6061 20.1737 53.3628 20.4625 53.1173 20.7494C53.3565 21.0032 53.5936 21.257 53.8224 21.5108L53.8266 21.5066V21.5108C54.0658 21.226 54.3092 20.9371 54.5546 20.6483C54.3154 20.3945 54.0783 20.1407 53.8495 19.8889Z" fill="white"/>
<path d="M46.0411 30.0555C45.9579 27.4205 48.6599 24.3089 51.2745 21.3004C51.4222 21.1291 51.5719 20.9578 51.7217 20.7866C51.443 20.4956 51.1622 20.2047 50.8835 19.9179C48.0109 16.9548 45.0427 13.8906 45.0448 11.1008C45.0469 7.77251 47.9548 4.18008 51.1975 2.94202C42.7068 4.10373 36.1443 11.3443 36.1443 20.0809C36.1443 28.8175 43.2435 36.6379 52.2292 37.3291C49.1175 36.283 46.1347 32.998 46.0411 30.0555Z" fill="white"/>
<path d="M53.5895 0.408081C42.636 0.408081 33.7584 9.21481 33.7584 20.0808C33.7584 30.9469 42.6381 39.7536 53.5895 39.7536C64.5409 39.7536 73.4206 30.9469 73.4206 20.0808C73.4206 9.21481 64.5409 0.408081 53.5895 0.408081ZM53.5895 38.4186C43.3973 38.4186 35.1042 30.1917 35.1042 20.0808C35.1042 9.97003 43.3952 1.74312 53.5895 1.74312C63.7838 1.74312 72.0748 9.97003 72.0748 20.0808C72.0748 30.1917 63.7817 38.4186 53.5895 38.4186Z" fill="white"/>
<path d="M61.0568 29.5809C61.0568 27.3731 58.4235 24.6535 55.8734 22.0226C55.6737 21.8183 55.474 21.6099 55.2743 21.4036C55.0185 21.7048 54.7647 22.0061 54.5213 22.3032C56.0377 24.0736 56.8426 25.4273 57.1172 26.655C57.4812 28.283 54.9748 31.8837 54.4693 32.5894L54.07 33.1445L53.6394 32.6121C53.0757 31.9168 50.2864 28.3697 50.6462 26.7871C50.9208 25.582 51.7029 24.1975 53.1672 22.3321C52.9322 22.0701 52.6867 21.8059 52.4371 21.5418C52.3123 21.6863 52.1854 21.8307 52.0606 21.9751C49.5771 24.8351 47.0082 27.792 47.0789 30.0246C47.1746 33.0496 51.0144 36.6338 54.1594 36.6399L54.1656 37.1558V36.6399C57.319 36.6399 61.0547 32.8143 61.0568 29.583V29.5809Z" fill="white"/>
<path d="M55.6882 2.90479C58.9518 4.07062 62.0344 7.51037 62.1322 10.5952C62.2216 13.3973 59.3366 16.7153 56.5473 19.926C56.3497 20.153 56.1521 20.3821 55.9524 20.6132C56.177 20.8463 56.4017 21.0774 56.6243 21.3085C59.3158 24.0859 62.0989 26.9582 62.0968 29.5829C62.0948 32.5996 59.5509 35.8475 56.6347 37.1186C64.8051 35.6845 71.0327 28.5945 71.0327 20.0829C71.0327 11.5712 64.3204 3.9365 55.6882 2.90479Z" fill="white"/>
</g>
<defs>
<clipPath id="clip0_1_245">
<rect width="105.884" height="71.4505" fill="white" transform="translate(0.64624 0.408081)"/>
</clipPath>
</defs>
</svg>
