<svg width="89" height="64" viewBox="0 0 89 64" fill="none" xmlns="http://www.w3.org/2000/svg">
<g clip-path="url(#clip0_1_246)">
<path d="M52.5815 19.0039H53.9753V24.2461C53.9753 24.4022 54.0829 24.4506 54.7018 24.4506H54.8041C55.3907 24.4506 55.5521 24.4022 55.5521 24.2461V19.0039H56.9513C57.1343 19.0039 57.1612 18.9608 57.1612 18.4334V18.3688C57.1612 17.8521 57.1343 17.8145 56.9513 17.8145H52.5868C52.4039 17.8145 52.377 17.8521 52.377 18.3688V18.4334C52.377 18.9608 52.4039 19.0039 52.5922 19.0039" fill="white"/>
<path d="M59.0448 24.5367C59.5614 24.5367 59.9919 24.3322 60.2664 24.0092C60.2772 24.1007 60.2933 24.2137 60.3148 24.2837C60.3417 24.4129 60.4279 24.4398 60.9499 24.4398H60.9929C61.6387 24.4398 61.6764 24.386 61.6549 24.1976C61.628 23.7078 61.6011 22.9436 61.6011 22.2439V19.7735C61.6011 19.6282 61.5365 19.569 60.8799 19.569H60.8315C60.1103 19.569 60.105 19.6228 60.105 19.7735V21.8671C60.105 22.2008 60.0942 22.4861 60.0888 22.6691C60.0727 22.9382 60.035 23.0458 59.9327 23.1373C59.8143 23.2396 59.6206 23.2934 59.3892 23.2934C59.1578 23.2934 58.991 23.2288 58.8941 23.1104C58.7865 22.9705 58.7434 22.8359 58.7434 22.1901V19.7735C58.7434 19.6282 58.6788 19.569 58.0223 19.569H57.9846C57.2635 19.569 57.2473 19.6228 57.2473 19.7735V22.5291C57.2473 23.2127 57.3872 23.6648 57.6994 24.0146C57.9846 24.3268 58.4474 24.5313 59.034 24.5313" fill="white"/>
<path d="M62.7905 21.7703V24.2407C62.7905 24.386 62.812 24.4452 63.517 24.4452H63.5654C64.2166 24.4452 64.2866 24.386 64.2866 24.2407V22.949C64.2866 22.1201 64.378 21.6142 64.5879 21.2913C64.8086 20.9576 65.1207 20.7585 65.6104 20.7208C65.7396 20.71 65.7826 20.6777 65.7826 20.1664V20.0373C65.7826 19.639 65.7557 19.5959 65.6427 19.5421C65.5674 19.5044 65.4759 19.4883 65.3306 19.4883C64.787 19.4883 64.3834 19.8758 64.1143 20.5755C64.0928 20.2525 64.0605 19.9296 64.0229 19.7359C63.9959 19.6067 63.9583 19.5798 63.4255 19.5798H63.3771C62.7313 19.5798 62.7044 19.6336 62.7259 19.8166C62.7636 20.3064 62.7905 21.0706 62.7905 21.7703Z" fill="white"/>
<path d="M68.0537 24.2406V19.7789C68.0537 19.6335 67.9945 19.5743 67.3433 19.5743H67.3003C66.5791 19.5743 66.563 19.6282 66.563 19.7789V24.2406C66.563 24.386 66.5845 24.4452 67.3057 24.4452H67.3487C68.0053 24.4452 68.0591 24.386 68.0591 24.2406" fill="white"/>
<path d="M67.2949 19.0522C67.8116 19.0522 68.1883 18.6486 68.1883 18.1965C68.1883 17.7336 67.8116 17.33 67.2949 17.33C66.7891 17.33 66.4124 17.7336 66.4124 18.1965C66.4124 18.6486 66.7944 19.0522 67.3003 19.0522" fill="white"/>
<path d="M70.7985 23.3903C70.4487 23.3903 69.9966 23.2343 69.6629 23.0028C69.5338 22.9221 69.453 22.9651 69.2324 23.3419L69.1409 23.498C68.9633 23.794 68.9472 23.8963 69.0602 23.9877C69.4584 24.2999 70.1311 24.5313 70.8307 24.5313C71.5304 24.5313 72.0578 24.3645 72.3968 24.0362C72.7089 23.7294 72.8758 23.3096 72.8758 22.8844C72.8758 21.8726 71.9609 21.5927 71.2559 21.3828C70.8846 21.2698 70.5294 21.1729 70.5294 20.9468C70.5294 20.8446 70.5724 20.7639 70.6585 20.71C70.7608 20.6454 70.9168 20.6078 71.1214 20.6078C71.4442 20.6078 71.7564 20.6993 72.0793 20.893C72.1923 20.9576 72.2892 20.9307 72.4775 20.6078L72.569 20.4409C72.7627 20.0911 72.752 20.0104 72.6497 19.935C72.2623 19.6605 71.7079 19.4829 71.0729 19.4829C69.9589 19.4829 69.1032 20.0803 69.1032 21.0706C69.1032 22.1417 70.0343 22.4323 70.7339 22.6261C71.0729 22.7283 71.4443 22.8306 71.4443 23.0513C71.4443 23.245 71.2505 23.3903 70.8092 23.3903" fill="white"/>
<path d="M73.7744 21.7648V24.2352C73.7744 24.3805 73.7959 24.4397 74.5117 24.4397H74.5493C75.2005 24.4397 75.2705 24.3805 75.2705 24.2352V22.1362C75.2705 21.8025 75.2705 21.4742 75.2866 21.2589C75.3028 21.0544 75.3673 20.9252 75.4857 20.8337C75.588 20.7584 75.7333 20.7153 75.9378 20.7153C76.1477 20.7153 76.3145 20.7799 76.4114 20.8983C76.5136 21.0275 76.5567 21.2105 76.5567 21.8187V24.2352C76.5567 24.3805 76.5782 24.4397 77.2832 24.4397H77.3316C77.9882 24.4397 78.0528 24.3805 78.0528 24.2352V22.1362C78.0528 21.8025 78.0528 21.4742 78.0689 21.2589C78.0905 21.0544 78.1497 20.9252 78.2734 20.8337C78.3649 20.7584 78.521 20.7153 78.7147 20.7153C78.9246 20.7153 79.0914 20.7799 79.1937 20.8983C79.3121 21.0275 79.3444 21.2105 79.3444 21.8187V24.2298C79.3444 24.3752 79.3659 24.4344 80.0709 24.4344H80.1139C80.7705 24.4344 80.8351 24.3805 80.8351 24.2298V21.4742C80.8351 20.7907 80.6844 20.3386 80.3723 19.9887C80.0978 19.6766 79.6457 19.472 79.0807 19.472C78.5371 19.472 78.0313 19.7304 77.6707 20.1018C77.3478 19.6766 76.885 19.4774 76.336 19.4774C75.8463 19.4774 75.3943 19.7089 75.0929 20.0103C75.0875 19.8919 75.066 19.7788 75.0498 19.7142C75.0122 19.6012 74.9476 19.5689 74.431 19.5689H74.3825C73.7367 19.5689 73.6937 19.6227 73.7098 19.8057C73.7475 20.2955 73.7744 21.0598 73.7744 21.7594" fill="white"/>
<path d="M84.1285 19.4774C82.541 19.4774 81.696 20.4247 81.696 22.0931C81.696 23.6755 82.5625 24.5258 83.9725 24.5258C85.56 24.5258 86.405 23.5786 86.405 21.9101C86.405 20.3224 85.5385 19.4774 84.1285 19.4774ZM83.9994 23.331C83.4666 23.331 83.2244 22.8628 83.2244 22.0393C83.2244 21.1943 83.4827 20.6722 84.0962 20.6722C84.629 20.6722 84.8712 21.1405 84.8712 21.964C84.8712 22.809 84.6129 23.3256 83.994 23.3256" fill="white"/>
<path d="M55.1109 33.7454C55.8912 33.7454 56.4993 33.5517 57.0375 33.218C57.1936 33.1157 57.1667 33.035 57.016 32.7013L56.9245 32.4914C56.7576 32.1146 56.7038 32.0662 56.537 32.1631C56.1226 32.3945 55.6975 32.4968 55.3046 32.4968C54.3359 32.4968 53.8408 31.711 53.8408 30.3708C53.8408 28.9338 54.422 28.1749 55.3315 28.1749C55.762 28.1749 56.0688 28.3149 56.4563 28.5624C56.5962 28.6539 56.6877 28.5786 56.8814 28.2557L56.9998 28.0511C57.2097 27.6905 57.2366 27.6152 57.0913 27.5075C56.6123 27.1416 55.9773 26.9263 55.2024 26.9263C53.3403 26.9263 52.2263 28.3256 52.2263 30.4031C52.2263 32.4752 53.2704 33.7454 55.1109 33.7454Z" fill="white"/>
<path d="M59.8252 28.697C58.3614 28.697 57.468 29.7573 57.468 31.2697C57.468 32.8359 58.4367 33.7508 59.9167 33.7508C60.5894 33.7508 61.1867 33.6109 61.7679 33.288C61.8863 33.2234 61.8971 33.1427 61.7841 32.7982L61.7141 32.5775C61.6011 32.2438 61.5096 32.2008 61.4074 32.2438C60.9176 32.4537 60.5248 32.556 60.0835 32.556C59.5023 32.556 59.1256 32.2815 59.0233 31.711H61.8164C61.9832 31.711 62.0209 31.6518 62.0209 31.1728C62.0209 29.7358 61.2728 28.697 59.8252 28.697ZM59.0125 30.7799C59.0664 30.161 59.3785 29.838 59.8036 29.838C60.2988 29.838 60.5033 30.2686 60.5248 30.7745H59.0125V30.7799Z" fill="white"/>
<path d="M66.5899 33.6486H66.6383C67.2949 33.6486 67.3487 33.5948 67.3487 33.4441V30.6884C67.3487 30.0049 67.2088 29.5528 66.8967 29.203C66.6222 28.8908 66.1594 28.6863 65.5728 28.6863C65.083 28.6863 64.6041 28.9285 64.3081 29.2191C64.2973 29.1169 64.2812 28.9877 64.2597 28.9231C64.222 28.8047 64.1574 28.7778 63.6408 28.7778H63.5923C62.9465 28.7778 62.8981 28.8316 62.9196 29.02C62.9573 29.5097 62.9842 30.274 62.9842 30.9737V33.4441C62.9842 33.5894 63.0057 33.6486 63.7107 33.6486H63.7592C64.4157 33.6486 64.4803 33.5948 64.4803 33.4441V31.3504C64.4803 31.0167 64.4803 30.6884 64.4965 30.4731C64.5126 30.2417 64.5772 30.1233 64.701 30.0426C64.8193 29.9618 64.9862 29.9242 65.2176 29.9242C65.4329 29.9242 65.6158 29.9888 65.7127 30.1072C65.8257 30.2363 65.8526 30.4193 65.8526 31.0275V33.4387C65.8526 33.584 65.8741 33.6432 66.5899 33.6432" fill="white"/>
<path d="M67.9783 29.2729V29.3375C67.9783 29.8003 68.016 29.8273 68.1559 29.8273H68.6994V32.0931C68.6994 32.6852 68.8232 33.0781 69.0977 33.3525C69.3398 33.5947 69.7219 33.7401 70.2762 33.7401C70.653 33.7401 71.062 33.6647 71.3633 33.5194C71.5086 33.444 71.5463 33.4117 71.4279 32.9919L71.401 32.9004C71.288 32.5129 71.2342 32.443 71.0781 32.4968C70.922 32.5506 70.7767 32.5775 70.5991 32.5775C70.4807 32.5775 70.3677 32.5398 70.2924 32.4699C70.217 32.3945 70.1901 32.2761 70.1901 32.0178V29.8219H71.1212C71.2611 29.8219 71.2987 29.795 71.2987 29.3321V29.2675C71.2987 28.8046 71.2611 28.7777 71.1212 28.7777H70.1901V27.6636C70.1901 27.5076 70.1256 27.4537 69.469 27.4537H69.4206C68.7048 27.4537 68.694 27.5076 68.694 27.6636V28.7777H68.1505C68.0106 28.7777 67.9729 28.8046 67.9729 29.2675" fill="white"/>
<path d="M72.2083 29.02C72.2459 29.5097 72.2728 30.274 72.2728 30.9737V33.4441C72.2728 33.5894 72.2944 33.6486 72.9994 33.6486H73.0478C73.7043 33.6486 73.7689 33.5948 73.7689 33.4441V32.1524C73.7689 31.3235 73.8604 30.8176 74.0703 30.4947C74.2909 30.161 74.6031 29.9618 75.0928 29.9242C75.222 29.9134 75.2704 29.8757 75.2704 29.3698V29.2406C75.2704 28.8424 75.2435 28.7993 75.1305 28.7401C75.0551 28.7024 74.9636 28.6863 74.8183 28.6863C74.2748 28.6863 73.8712 29.0738 73.6021 29.7735C73.5806 29.4505 73.5483 29.1276 73.5106 28.9339C73.4837 28.8047 73.446 28.7778 72.9132 28.7778H72.8648C72.219 28.7778 72.1921 28.8316 72.2136 29.02" fill="white"/>
<path d="M78.0851 28.6863C76.5029 28.6863 75.6526 29.6335 75.6526 31.302C75.6526 32.8897 76.519 33.7347 77.929 33.7347C79.5166 33.7347 80.3615 32.7821 80.3615 31.119C80.3615 29.5367 79.4951 28.6863 78.0851 28.6863ZM77.9559 32.5399C77.4231 32.5399 77.181 32.0716 77.181 31.2482C77.181 30.4247 77.4393 29.8865 78.0582 29.8865C78.591 29.8865 78.8331 30.3547 78.8331 31.1782C78.8331 32.0232 78.5748 32.5399 77.9559 32.5399Z" fill="white"/>
<path d="M52.9205 36.2267C52.4523 36.2267 52.377 36.2536 52.377 36.4366V42.6583C52.377 42.8144 52.49 42.8628 53.1089 42.8628H53.2111C53.8031 42.8628 53.9592 42.8198 53.9592 42.6583V40.5647C54.0775 40.5754 54.2175 40.5754 54.3251 40.5754C55.1915 40.5754 55.875 40.3332 56.2571 39.9404C56.6553 39.5259 56.8652 38.9662 56.8652 38.3472C56.8652 37.7122 56.6876 37.2062 56.3486 36.8564C55.832 36.3505 55.0947 36.2321 54.0076 36.2321H52.9205V36.2267ZM55.0785 37.7175C55.1915 37.8629 55.2561 38.0781 55.2561 38.3472C55.2561 38.6702 55.2077 38.9177 55.0624 39.0954C54.8848 39.3053 54.648 39.3914 54.2605 39.3914C54.1852 39.3914 54.0399 39.3914 53.9538 39.3806V37.4161H54.1637C54.6695 37.4161 54.9117 37.5076 55.0731 37.7175" fill="white"/>
<path d="M59.5345 37.9005C57.947 37.9005 57.1021 38.8478 57.1021 40.5162C57.1021 42.0986 57.9685 42.9489 59.3785 42.9489C60.9661 42.9489 61.811 41.9963 61.811 40.3332C61.811 38.7509 60.9445 37.9005 59.5345 37.9005ZM59.4054 41.7541C58.8726 41.7541 58.6304 41.2859 58.6304 40.4624C58.6304 39.6174 58.8887 39.1007 59.5076 39.0953C60.0404 39.0953 60.2826 39.5636 60.2826 40.3871C60.2826 41.232 60.0243 41.7487 59.4054 41.7487" fill="white"/>
<path d="M62.726 40.1879V42.6583C62.726 42.8036 62.7476 42.8628 63.4525 42.8628H63.501C64.1522 42.8628 64.2221 42.809 64.2221 42.6583V41.3666C64.2221 40.5377 64.3136 40.0318 64.5235 39.7089C64.7441 39.3752 65.0563 39.1761 65.546 39.1384C65.6752 39.1276 65.7236 39.0953 65.7236 38.584V38.4549C65.7236 38.0566 65.6967 38.0135 65.5837 37.9597C65.5083 37.922 65.4168 37.9059 65.2715 37.9059C64.728 37.9059 64.3244 38.2934 64.0553 38.9931C64.0338 38.6701 64.0015 38.3472 63.9638 38.1535C63.9369 38.0243 63.8992 37.9974 63.3664 37.9974H63.318C62.6722 37.9974 62.6453 38.0512 62.6614 38.2396C62.6991 38.7294 62.726 39.4936 62.726 40.1933" fill="white"/>
<path d="M69.5551 42.2008L69.5282 42.1093C69.4205 41.7218 69.3613 41.6465 69.2053 41.7057C69.0492 41.7595 68.8985 41.7864 68.7263 41.7864C68.6079 41.7864 68.4949 41.7487 68.4249 41.6734C68.3496 41.598 68.3227 41.4796 68.3227 41.2213V39.0254H69.2537C69.3936 39.0254 69.4259 38.9984 69.4259 38.5356V38.471C69.4259 38.0135 69.3883 37.9812 69.2483 37.9812H68.3173V36.8671C68.3173 36.711 68.2527 36.6572 67.6015 36.6572H67.5531C66.832 36.6572 66.8266 36.711 66.8266 36.8671V37.9812H66.2831C66.1431 37.9812 66.1108 38.0081 66.1108 38.471V38.5356C66.1108 38.9984 66.1485 39.0254 66.2831 39.0254H66.8266V41.2912C66.8266 41.8833 66.945 42.2762 67.2248 42.556C67.467 42.7928 67.8491 42.9435 68.4034 42.9435C68.7801 42.9435 69.1837 42.8682 69.4905 42.7229C69.6358 42.6475 69.6735 42.6099 69.5551 42.1954" fill="white"/>
<path d="M74.7593 42.6152C74.7324 42.1254 74.7055 41.3612 74.7055 40.6615V38.1911C74.7055 38.0458 74.641 37.9866 73.9844 37.9866H73.936C73.2202 37.9866 73.2094 38.0404 73.2094 38.1911V40.2847C73.2094 40.6184 73.1987 40.9037 73.1933 41.0867C73.1772 41.3558 73.1395 41.4634 73.0372 41.5549C72.9134 41.6572 72.7251 41.711 72.4937 41.711C72.2515 41.711 72.0954 41.6464 71.9986 41.528C71.8856 41.3881 71.8533 41.2535 71.8533 40.6077V38.1911C71.8533 38.0458 71.7887 37.9866 71.1321 37.9866H71.0945C70.3733 37.9866 70.3572 38.0404 70.3572 38.1911V40.9467C70.3572 41.6303 70.4971 42.0824 70.8092 42.4322C71.0945 42.7444 71.5573 42.9489 72.1439 42.9489C72.6605 42.9489 73.091 42.7444 73.3709 42.4214C73.3817 42.5129 73.3978 42.626 73.4193 42.6959C73.4462 42.8251 73.527 42.852 74.0544 42.852H74.0974C74.7432 42.852 74.7809 42.7982 74.7593 42.6098" fill="white"/>
<path d="M80.1409 42.4646V40.048C80.1409 39.273 80.141 38.4011 80.0548 38.1427C80.001 37.9974 79.9526 37.9866 79.5221 37.9866H79.4306C79.0162 37.9866 78.9785 38.0135 78.9516 38.1158C78.9301 38.1804 78.9139 38.2934 78.8978 38.4011C78.5857 38.0781 78.1982 37.8951 77.7085 37.8951C76.4922 37.8951 75.615 38.8262 75.6096 40.457C75.6096 41.9694 76.3953 42.8682 77.6439 42.8682C78.0744 42.8682 78.4081 42.7552 78.6933 42.5184V42.6206C78.6933 43.5248 78.3919 43.8209 77.7569 43.8209C77.434 43.8209 77.0035 43.6917 76.7129 43.5571C76.5729 43.4926 76.5191 43.5571 76.3469 43.9554L76.2823 44.1007C76.1155 44.4775 76.137 44.5528 76.2608 44.6282C76.6321 44.8488 77.2564 45.0049 77.8269 45.0049C78.6018 45.0049 79.1884 44.8219 79.5651 44.3967C79.9526 43.9823 80.1356 43.3472 80.1356 42.4699M78.6449 40.9145C78.6449 41.1998 78.6341 41.3828 78.5534 41.4958C78.4511 41.6357 78.2681 41.7003 77.9937 41.7003C77.4232 41.7003 77.138 41.2751 77.138 40.4678C77.138 39.5475 77.4501 39.1061 77.9775 39.1061C78.2897 39.1061 78.4942 39.2353 78.6502 39.4452V40.9199L78.6449 40.9145Z" fill="white"/>
<path d="M85.4901 42.6099C85.4632 42.1201 85.4363 41.2913 85.4363 40.6562V40.1126C85.4363 39.2945 85.4524 38.6594 85.4524 38.175C85.4524 38.0297 85.3663 37.9813 84.7959 37.9813H84.7421C84.1877 37.9813 84.1608 38.0458 84.1555 38.1481L84.1285 38.358C83.9187 38.0835 83.5097 37.8898 83.0522 37.8898C81.9113 37.8898 80.9426 38.8316 80.9426 40.5055C80.9426 42.0179 81.7283 42.9382 82.9446 42.9382C83.4612 42.9382 83.811 42.7821 84.0963 42.4108C84.107 42.5023 84.1232 42.6045 84.1501 42.6852C84.1985 42.8144 84.2792 42.8413 84.812 42.8413H84.8551C85.5009 42.8413 85.5062 42.7875 85.4901 42.5991M83.9402 40.9576C83.9402 41.3074 83.9025 41.4743 83.7895 41.5819C83.6711 41.7003 83.5043 41.7595 83.2729 41.7595C82.6647 41.7595 82.4602 41.2052 82.4602 40.4624C82.4602 39.5851 82.7293 39.09 83.289 39.09C83.5473 39.09 83.7949 39.2299 83.9348 39.4183V40.9576H83.9402Z" fill="white"/>
<path d="M88.4609 41.781H88.3317C88.1756 41.781 88.1218 41.7056 88.1218 41.5441V38.7078C88.1218 37.5183 88.0895 36.3127 88.0357 36.0167C88.0088 35.8983 87.9281 35.8499 87.3146 35.8499H87.2715C86.5612 35.8499 86.545 35.8983 86.5504 36.0328C86.5665 36.3558 86.6257 37.6636 86.6257 38.514V41.6195C86.6257 42.0501 86.7118 42.373 86.9486 42.6152C87.1209 42.7874 87.4168 42.9004 87.7989 42.9004C88.138 42.9004 88.3425 42.8628 88.4716 42.8089C88.5739 42.7605 88.6116 42.6959 88.6116 42.3407V42.26C88.6116 41.8455 88.6062 41.7917 88.4663 41.7917" fill="white"/>
<path d="M55.2615 50.7745H55.1969C55.0462 50.7745 54.9547 50.7907 54.9547 50.8391V53.4333C54.9547 54.2029 54.5942 54.5958 53.9484 54.6012C53.2972 54.6012 52.942 54.2622 52.942 53.4333V50.8445C52.942 50.7961 52.8505 50.7799 52.6891 50.7799H52.6245C52.4738 50.7799 52.3823 50.7961 52.3823 50.8445V53.4764C52.3823 54.5958 52.9151 55.0749 53.9269 55.0749C54.987 55.0749 55.5144 54.5259 55.5144 53.3687V50.8445C55.5144 50.7961 55.4229 50.7799 55.2615 50.7799" fill="white"/>
<path d="M59.6637 52.3461C59.8843 52.3461 60.0835 52.4053 60.1965 52.5399C60.3364 52.7067 60.3579 52.9274 60.3579 53.4064V54.9403C60.3579 54.9887 60.3741 55.0103 60.6108 55.0103H60.6485C60.8853 55.0103 60.8907 54.9834 60.8907 54.9403V53.1588C60.8907 52.6798 60.7992 52.3784 60.5893 52.1577C60.3956 51.9586 60.1157 51.8456 59.7928 51.8456C59.3731 51.8456 58.9695 52.0232 58.7327 52.3461C58.695 52.2762 58.6519 52.2169 58.5981 52.1577C58.4044 51.9586 58.1245 51.8456 57.8016 51.8456C57.4357 51.8456 57.0966 51.9963 56.8921 52.2385H56.8868V51.9748C56.8814 51.9209 56.8491 51.9048 56.6392 51.9048H56.6069C56.3863 51.9048 56.3647 51.9317 56.3647 51.9748C56.3647 52.1201 56.3755 52.5345 56.3755 52.9328V54.9403C56.3755 54.9887 56.397 55.0103 56.6284 55.0103H56.6661C56.9029 55.0103 56.9083 54.978 56.9083 54.9403V53.7778C56.9083 53.4333 56.9137 53.1373 56.9244 52.9704C56.946 52.7175 57.0105 52.6206 57.0805 52.5506C57.215 52.4215 57.4626 52.3461 57.6725 52.3461C57.8931 52.3461 58.0976 52.4053 58.2053 52.5399C58.3452 52.7067 58.3667 52.9274 58.3667 53.4064V54.9403C58.3667 54.9887 58.3829 55.0103 58.6196 55.0103H58.6573C58.8941 55.0103 58.8995 54.9834 58.8995 54.9403V53.7778C58.8995 53.4333 58.8995 53.1373 58.9156 52.9704C58.9372 52.7175 59.0017 52.6206 59.0771 52.5506C59.2116 52.4215 59.4592 52.3461 59.6637 52.3461Z" fill="white"/>
<path d="M65.5566 53.3903C65.5566 52.4269 65.0777 51.8456 64.3027 51.8456C63.9798 51.8456 63.6408 52.007 63.4578 52.2331V51.9748C63.4524 51.9209 63.4147 51.9048 63.2049 51.9048H63.1833C62.9573 51.9048 62.9412 51.9263 62.9412 51.9748C62.9412 52.1201 62.9519 52.5345 62.9573 52.9328V56.2966C62.9573 56.3558 63.0111 56.3719 63.1995 56.3719H63.2371C63.4363 56.3719 63.4901 56.3558 63.4901 56.2966V54.8811C63.6354 54.9834 63.8991 55.0641 64.1305 55.0641C65.0992 55.0641 65.562 54.2729 65.562 53.3903M64.0982 54.5851C63.8614 54.5851 63.63 54.4828 63.4847 54.3644V53.4495C63.4847 52.8682 63.4847 52.7121 63.5977 52.5776C63.7161 52.4269 63.9852 52.3192 64.222 52.3192C64.6794 52.3192 65.0077 52.696 65.0077 53.4064C65.0077 54.1168 64.6471 54.5851 64.0982 54.5851Z" fill="white"/>
<path d="M68.7156 51.9694C68.7156 51.9209 68.7102 51.8994 68.4842 51.8994H68.4734C68.2958 51.8994 68.2689 51.8994 68.2582 51.9694L68.2313 52.217C68.0698 52.0071 67.79 51.8402 67.4348 51.8402C66.6598 51.8402 66.084 52.5022 66.084 53.5087C66.084 54.3537 66.4822 55.0695 67.3433 55.0695C67.7254 55.0695 68.059 54.8973 68.2474 54.6712L68.2851 54.9403C68.2905 54.9941 68.3281 55.0103 68.5111 55.0103H68.5326C68.7156 55.0103 68.7479 54.9834 68.7479 54.9403C68.7264 54.6174 68.7048 54.2353 68.7048 53.6917V52.8682C68.7048 52.4914 68.7156 52.1147 68.7156 51.9748M68.1774 53.5571C68.1774 54.0684 68.1505 54.2353 68.0321 54.3698C67.8707 54.542 67.6393 54.6012 67.4455 54.6012C66.8374 54.6012 66.6437 54.0361 66.6437 53.4818C66.6437 52.7767 66.9612 52.3246 67.4994 52.3246C67.7792 52.3246 68.0429 52.513 68.1774 52.7229V53.5571Z" fill="white"/>
<path d="M69.8888 51.8994H69.8511C69.6143 51.8994 69.5981 51.9209 69.5981 51.9694V54.9349C69.5981 54.9834 69.6197 55.0049 69.8511 55.0049H69.8888C70.1255 55.0049 70.1309 54.978 70.1309 54.9349V51.9694C70.1309 51.9263 70.1255 51.8994 69.8888 51.8994Z" fill="white"/>
<path d="M70.3085 50.6992H70.2386C70.0717 50.6992 70.0018 50.7207 69.9802 50.7638L69.5497 51.5173C69.5228 51.555 69.539 51.5873 69.7273 51.5873H69.7757C69.9157 51.5873 69.9695 51.5657 69.9856 51.5334L70.5399 50.7799C70.5668 50.7369 70.5292 50.6992 70.3085 50.6992Z" fill="white"/>
<path d="M73.0048 54.0899C73.0048 53.4764 72.4935 53.3041 72.0092 53.1804C71.7293 53.1104 71.3957 53.0243 71.3957 52.7121C71.3957 52.3892 71.7401 52.2923 71.9823 52.2923C72.2406 52.2923 72.4505 52.4 72.6657 52.5507C72.7034 52.5829 72.7357 52.5829 72.8379 52.4322L72.881 52.373C72.9617 52.2546 72.951 52.2008 72.9025 52.1631C72.6873 51.9694 72.3428 51.8402 71.9715 51.8402C71.3849 51.8402 70.8844 52.1954 70.8844 52.7713C70.8844 53.0028 70.9705 53.2073 71.1212 53.3418C71.2827 53.4871 71.5087 53.5679 71.8208 53.6432C72.1222 53.7078 72.4989 53.8155 72.4989 54.133C72.4989 54.4775 72.1222 54.612 71.8531 54.612C71.5948 54.612 71.3096 54.5044 71.0889 54.3752C71.0136 54.3268 70.992 54.3321 70.9113 54.499L70.8844 54.5636C70.8198 54.6981 70.8037 54.7358 70.8629 54.7735C71.0889 54.9349 71.4495 55.0695 71.8262 55.0695C72.472 55.0695 73.0048 54.725 73.0048 54.0953" fill="white"/>
<path d="M49.6755 7.33539C42.6202 2.6368 34.4024 0.15564 25.9102 0.15564C17.418 0.15564 9.20566 2.64756 2.15573 7.35692L0.799561 8.26112L1.58528 10.1018L1.83283 10.6831L4.712 17.4107L5.06719 18.245V28.471V43.0296C5.07257 45.4247 5.47619 47.7659 6.27267 50.0049C9.2218 58.3041 17.122 63.8746 25.9318 63.8746C34.1172 63.8746 41.5169 59.0522 44.8858 51.711L44.9666 51.7325L45.5747 50.0156C46.3712 47.7713 46.7748 45.4193 46.7694 43.0189V32.3784V26.0867V18.2342L50.2406 10.1018L51.0263 8.25574L49.6701 7.35154L49.6755 7.33539ZM14.2859 15.8661C17.9239 14.2999 21.8579 13.4925 25.9156 13.4872C29.9787 13.4872 33.9127 14.2945 37.5507 15.8553L14.2805 15.8661H14.2859Z" fill="white"/>
<path d="M25.9263 36.711V30.4139C21.2712 30.4139 17.2027 32.9543 15.0339 36.7164H25.9263V36.711Z" fill="white"/>
<path d="M25.9263 43.0081V36.7111H36.8241C37.8896 38.5571 38.4977 40.7261 38.5031 43.0081C38.5031 43.0028 38.5031 43.0189 38.5031 43.0081H25.9317H25.9263Z" fill="white"/>
<path d="M25.9319 49.2998C23.198 49.2998 20.8678 47.556 20.0013 45.1179L14.0869 47.2169C15.8198 52.0878 20.4695 55.5754 25.9319 55.5754V49.2998Z" fill="white"/>
<path d="M44.8104 24.1168H25.9209V30.4085H44.8104V24.1168Z" fill="#878787"/>
<path d="M25.9102 2.11475V11.5335C32.9978 11.5335 39.5472 13.8693 44.805 17.8198L48.5883 8.97158C42.0981 4.63897 34.2947 2.10937 25.9102 2.11475Z" fill="#878787"/>
<path d="M20.0012 45.1178C20.8677 47.556 23.1925 49.3051 25.9318 49.2998V43.0081L20.0012 45.1125V45.1178Z" fill="#878787"/>
<path d="M38.4979 43.0028H44.8159V36.7003H36.8242C37.8898 38.5464 38.4979 40.7208 38.5033 43.0028" fill="#878787"/>
<path d="M25.9316 49.2998V55.5754C31.394 55.5754 36.0383 52.0878 37.7712 47.2223L31.8568 45.1179C30.9904 47.556 28.6655 49.2998 25.9316 49.2998Z" fill="#878787"/>
<path d="M37.7714 47.2223C36.0385 52.0877 31.3942 55.5753 25.9318 55.5753C20.4641 55.5753 15.8144 52.0877 14.0869 47.2169L25.9264 43.0081H13.3603C13.3603 44.4774 13.624 45.909 14.0869 47.2169L8.12402 49.3374C10.7287 56.6625 17.7195 61.9047 25.9372 61.8993C34.1442 61.8993 41.1295 56.6571 43.7342 49.3428L37.7714 47.2223Z" fill="#1D1D1B"/>
<path d="M25.921 24.1222H7.03687V30.4193H25.921V24.1222Z" fill="#1D1D1B"/>
<path d="M44.8104 30.4086H25.9209V36.7057H44.8104V30.4086Z" fill="#1D1D1B"/>
<path d="M15.0286 36.7164H7.03687V43.0189H13.3549C13.3549 40.7315 13.963 38.5625 15.0232 36.7164" fill="#1D1D1B"/>
<path d="M31.8568 45.1178L25.9263 43.0081V49.2998C28.6601 49.2998 30.9904 47.5506 31.8568 45.1178Z" fill="#1D1D1B"/>
<path d="M44.805 17.8198H25.9155V24.1169H44.805V17.8198Z" fill="#1D1D1B"/>
<path d="M25.9263 43.0081L43.7287 49.3428C44.4283 47.3676 44.8158 45.2201 44.8158 43.0027L25.9263 43.0134V43.0081Z" fill="#C6C6C6"/>
<path d="M15.0286 36.7164C13.9684 38.5625 13.3549 40.7315 13.3603 43.0189H7.04224C7.04224 45.2363 7.42433 47.3623 8.12394 49.3375L14.0868 47.2223C13.624 45.9145 13.3656 44.4828 13.3603 43.0189H25.9264V36.7164H15.0286Z" fill="#C6C6C6"/>
<path d="M25.9156 17.8306H7.03149V24.1277H25.9156V17.8306Z" fill="#C6C6C6"/>
<path d="M25.921 30.4139L7.03149 30.4247V36.7218H15.0286C17.1974 32.9597 21.2659 30.4193 25.921 30.4193" fill="#C6C6C6"/>
<path d="M25.9157 11.5335V2.11475C17.5311 2.11475 9.72778 4.65511 3.24292 8.98234L7.03158 17.8306C12.2894 13.8747 18.8335 11.5335 25.9157 11.5281" fill="#C6C6C6"/>
</g>
<defs>
<clipPath id="clip0_1_246">
<rect width="87.8066" height="63.7028" fill="white" transform="translate(0.799561 0.15564)"/>
</clipPath>
</defs>
</svg>
