<svg width="123" height="27" viewBox="0 0 123 27" fill="none" xmlns="http://www.w3.org/2000/svg">
<g clip-path="url(#clip0_1_247)">
<path d="M122.002 0.172119V26.8584H0.622559V0.172119H122.002ZM121.341 0.836053H1.28389V26.1945H121.336V0.836053H121.341Z" fill="white"/>
<path fill-rule="evenodd" clip-rule="evenodd" d="M36.1106 4.96289H33.6033V4.55688H40.8208C42.8619 4.55688 44.489 4.94856 45.6975 5.72713C46.9059 6.51047 47.5102 7.77625 47.5102 9.52445C47.5102 11.2726 46.8726 12.4333 45.5976 13.2597C44.3225 14.086 42.8143 14.4968 41.0777 14.4968C40.0643 14.4968 39.2698 14.3535 38.6988 14.0669V22.0723H41.2823V22.4783H33.608V22.0723H36.1154V4.96289H36.1106ZM38.6941 13.551C38.9129 13.6848 39.1984 13.809 39.5409 13.9188C39.8883 14.0287 40.2546 14.086 40.6447 14.086C41.7105 14.086 42.662 13.7517 43.5041 13.0782C44.3463 12.4047 44.7697 11.2965 44.7697 9.75372C44.7697 8.10583 44.3938 6.89259 43.6421 6.1188C42.8904 5.34501 41.7533 4.95811 40.2356 4.95811H38.6893V13.551H38.6941Z" fill="white"/>
<path fill-rule="evenodd" clip-rule="evenodd" d="M57.787 4.1748C59.9327 4.1748 61.8025 5.08712 63.3963 6.91652C64.9902 8.74592 65.7895 10.9431 65.7895 13.5176C65.7895 16.0922 64.9997 18.3133 63.4201 20.1283C61.8406 21.9482 59.9613 22.8557 57.787 22.8557C55.6127 22.8557 53.7714 21.9434 52.1776 20.114C50.5837 18.2846 49.7844 16.0874 49.7844 13.5129C49.7844 10.9383 50.5742 8.71726 52.1538 6.90219C53.7334 5.08234 55.6127 4.1748 57.787 4.1748ZM57.787 22.4497C59.1524 22.4497 60.2182 21.9721 60.9794 21.0168C61.7406 20.0615 62.2497 18.9246 62.5114 17.6159C62.7731 16.3023 62.9015 14.9363 62.9015 13.5176C62.9015 12.099 62.7778 10.6661 62.5352 9.38119C62.2925 8.09631 61.7882 6.97384 61.027 6.01853C60.2657 5.06323 59.1857 4.58558 57.787 4.58558C56.3882 4.58558 55.3557 5.06323 54.5945 6.01853C53.8333 6.97384 53.3242 8.11064 53.0625 9.4194C52.8008 10.7329 52.6724 12.099 52.6724 13.5176C52.6724 14.9363 52.7961 16.3692 53.0387 17.6541C53.2814 18.939 53.7857 20.0615 54.5469 21.0168C55.3082 21.9721 56.3882 22.4497 57.787 22.4497Z" fill="white"/>
<path fill-rule="evenodd" clip-rule="evenodd" d="M70.1237 4.96289H67.5925V4.55688H75.3667C77.1746 4.55688 78.64 4.87213 79.7581 5.49786C80.8809 6.12835 81.4423 7.3177 81.4423 9.0659C81.4423 10.4415 80.8857 11.435 79.7724 12.0512C78.6591 12.6626 77.4078 13.0543 76.0233 13.2262C77.6266 13.3934 78.7875 13.7564 79.5059 14.3057C80.2244 14.855 80.6763 15.9297 80.8619 17.5203L81.2187 20.6203C81.3044 21.2651 81.4661 21.6902 81.7135 21.9051C81.9562 22.1153 82.2321 22.2252 82.5366 22.2252C82.8078 22.2252 83.1551 22.1392 83.5738 21.972L83.7261 22.3016C83.4549 22.4019 83.1551 22.4831 82.8268 22.5452C82.4986 22.6025 82.1037 22.6359 81.6517 22.6359C80.2481 22.6359 79.3537 22.3111 78.954 21.6568C78.5591 21.0024 78.2499 19.8035 78.031 18.0601L77.855 16.5364C77.7551 15.5524 77.4696 14.7977 77.0081 14.2723C76.5419 13.7469 75.6617 13.4842 74.3628 13.4842H72.7166V22.0771H75.3001V22.4831H67.602V22.0771H70.1332V4.96289H70.1237ZM72.7071 13.0734H73.9727C75.5427 13.0734 76.7227 12.7629 77.5172 12.142C78.3117 11.521 78.7066 10.4989 78.7066 9.07068C78.7066 7.84789 78.4021 6.85438 77.7931 6.09969C77.1842 5.34501 76.0613 4.96289 74.4247 4.96289H72.7024V13.0686L72.7071 13.0734Z" fill="white"/>
<path fill-rule="evenodd" clip-rule="evenodd" d="M91.0437 4.96289H90.5108C88.2128 4.96289 86.7189 5.25425 86.029 5.84176C85.3391 6.4245 84.9918 7.75237 84.9918 9.82059H84.5874V4.55688H100.083V9.82059H99.679C99.679 7.77147 99.3317 6.44838 98.6418 5.85609C97.9519 5.26381 96.4627 4.96766 94.1838 4.96766H93.6271V22.0675H96.2344V22.4735H88.4364V22.0675H91.0437V4.96289Z" fill="white"/>
<path fill-rule="evenodd" clip-rule="evenodd" d="M109.941 4.1748C112.087 4.1748 113.957 5.08712 115.551 6.91652C117.144 8.74592 117.944 10.9431 117.944 13.5176C117.944 16.0922 117.154 18.3133 115.574 20.1283C113.995 21.9482 112.116 22.8557 109.941 22.8557C107.767 22.8557 105.926 21.9434 104.332 20.114C102.738 18.2846 101.939 16.0874 101.939 13.5129C101.939 10.9383 102.729 8.71726 104.308 6.90219C105.888 5.08234 107.767 4.1748 109.941 4.1748ZM109.941 22.4497C111.307 22.4497 112.372 21.9721 113.134 21.0168C113.895 20.0615 114.404 18.9246 114.666 17.6159C114.927 16.3023 115.056 14.9363 115.056 13.5176C115.056 12.099 114.932 10.6661 114.689 9.38119C114.447 8.09631 113.943 6.97384 113.181 6.01853C112.42 5.06323 111.34 4.58558 109.941 4.58558C108.542 4.58558 107.51 5.06323 106.749 6.01853C105.988 6.97384 105.478 8.11064 105.217 9.4194C104.955 10.7329 104.827 12.099 104.827 13.5176C104.827 14.9888 104.95 16.3692 105.193 17.6541C105.436 18.939 105.94 20.0615 106.701 21.0168C107.462 21.9721 108.542 22.4497 109.941 22.4497Z" fill="white"/>
<path d="M31.1102 0.50647H0.955566V26.5289H31.1102V0.50647Z" fill="white"/>
<path fill-rule="evenodd" clip-rule="evenodd" d="M4.79028 4.5331H12.769V4.99164H10.7184V16.1591C10.7184 18.0219 11.0277 19.4406 11.6414 20.4245C12.26 21.4037 13.4351 22.0533 15.1479 21.8957C16.5039 21.7715 17.2794 21.4562 18.1405 20.5774C19.0017 19.6985 19.4299 18.4279 19.4299 16.7705V7.12196C19.4299 6.3625 19.3062 5.8132 19.0635 5.48362C18.8209 5.15404 18.6258 4.98686 17.9835 4.98686H17.2508V4.52832H22.2655V4.98686H21.6089C21.1522 4.98686 20.8191 5.15882 20.6098 5.5075C20.4005 5.85619 20.291 6.39116 20.291 7.11718V16.6081C20.291 18.5378 19.7391 20.052 18.6306 21.1505C17.5268 22.2491 15.8473 22.7984 13.6016 22.7984C11.5273 22.7984 9.8668 22.2348 8.62503 21.1123C7.38326 19.9851 6.76475 18.4423 6.76475 16.4791V4.98686H4.79028V4.52832V4.5331Z" fill="#1D1D1B"/>
<path fill-rule="evenodd" clip-rule="evenodd" d="M25.0107 19.0632C25.515 19.0632 25.9385 19.2352 26.2858 19.5839C26.6331 19.9326 26.8044 20.3577 26.8044 20.864C26.8044 21.3703 26.6331 21.7954 26.2858 22.1441C25.9385 22.4928 25.515 22.6647 25.0107 22.6647C24.5064 22.6647 24.083 22.4928 23.7356 22.1441C23.3883 21.7954 23.217 21.3703 23.217 20.864C23.217 20.3577 23.3883 19.9326 23.7356 19.5839C24.083 19.2352 24.5064 19.0632 25.0107 19.0632Z" fill="#1D1D1B"/>
</g>
<defs>
<clipPath id="clip0_1_247">
<rect width="121.38" height="26.6863" fill="white" transform="translate(0.622559 0.172119)"/>
</clipPath>
</defs>
</svg>
