<svg width="70" height="70" viewBox="0 0 70 70" fill="none" xmlns="http://www.w3.org/2000/svg">
<g clip-path="url(#clip0_1_248)">
<path d="M30.9602 69.8585C30.9539 69.7084 30.9414 69.5582 30.9414 69.4112C30.9414 51.348 30.9414 33.2879 30.9508 15.2247C30.9508 14.8556 30.8757 14.7492 30.491 14.7555C28.6144 14.7805 26.7409 14.7774 24.8643 14.7555C24.514 14.7524 24.4421 14.8524 24.4421 15.184C24.4515 33.2472 24.4483 51.3073 24.4483 69.3706C24.4483 69.5332 24.4358 69.6959 24.4296 69.8554H22.2527C22.2621 69.6959 22.2808 69.5332 22.2808 69.3737C22.2808 48.3953 22.2808 27.4169 22.2746 6.43857C22.2746 6.06636 22.3496 5.93812 22.7375 5.97253C23.1972 6.01006 23.6633 5.99755 24.123 5.97253C24.3826 5.96001 24.4546 6.03195 24.4515 6.29782C24.4389 7.91178 24.4452 9.52574 24.4452 11.146C24.6047 11.1835 24.6641 11.049 24.7455 10.9739C26.8316 9.12851 28.9209 7.28309 30.9946 5.42515C31.2198 5.22497 31.3355 5.18431 31.5357 5.44079C31.8453 5.83177 32.18 6.20711 32.5272 6.56369C32.7148 6.75761 32.6835 6.86083 32.4959 7.0266C30.5192 8.76881 28.5456 10.5204 26.5783 12.272C26.4907 12.3502 26.3687 12.4065 26.3281 12.5441C26.4438 12.6192 26.5689 12.5785 26.6878 12.5785C28.6895 12.5816 30.6912 12.591 32.6898 12.5723C33.0495 12.5691 33.1058 12.6817 33.1058 13.007C33.0995 31.7959 33.0995 50.5848 33.0995 69.3737C33.0995 69.5332 33.1183 69.6959 33.1277 69.8554H30.9508L30.9602 69.8585Z" fill="white"/>
<path d="M67.7294 69.8586C67.7387 69.7241 67.7575 69.5865 67.7575 69.452C67.7575 51.3543 67.7575 33.2567 67.7669 15.159C67.7669 14.8275 67.6887 14.7524 67.3634 14.7556C65.4868 14.7743 63.6133 14.7743 61.7367 14.7556C61.3895 14.7524 61.2832 14.8181 61.2832 15.1935C61.2988 20.933 61.2926 26.6757 61.2926 32.4153C61.2926 44.7483 61.2926 57.0783 61.2926 69.4113C61.2926 69.5614 61.2801 69.7116 61.2738 69.8586H59.0969C59.1063 69.6991 59.1251 69.5364 59.1251 69.3769C59.1251 48.3985 59.1251 27.4233 59.1188 6.44491C59.1188 6.0852 59.1751 5.93507 59.5755 5.9726C60.0227 6.01326 60.4762 5.99763 60.9235 5.97573C61.2019 5.96322 61.3019 6.02265 61.2988 6.3323C61.2801 7.80864 61.2894 9.28498 61.2894 10.7613C61.2894 10.8833 61.2894 11.0053 61.2894 11.1554C61.4771 11.1335 61.5615 10.9959 61.6616 10.9052C63.729 9.07541 65.7964 7.24563 67.8513 5.40334C68.0546 5.22192 68.161 5.19064 68.3455 5.41898C68.6645 5.81934 69.0055 6.20406 69.362 6.57002C69.5528 6.76707 69.5153 6.86091 69.3245 7.02981C67.3478 8.77201 65.3805 10.5267 63.41 12.2783C63.3193 12.3565 63.2349 12.441 63.0691 12.5942H69.8937C69.9688 12.71 69.9344 12.8382 69.9344 12.9602C69.9344 31.8054 69.9344 50.6506 69.9344 69.4926C69.9344 69.6146 69.9657 69.7429 69.9 69.8617H67.7231L67.7294 69.8586Z" fill="white"/>
<path d="M45.3694 69.8585C45.3694 69.7084 45.3631 69.5582 45.3631 69.4081C45.3631 51.1572 45.3631 32.9063 45.3725 14.6523C45.3725 14.2801 45.2568 14.0423 44.9816 13.8015C42.4387 11.5651 39.9178 9.3068 37.375 7.07353C37.1123 6.84207 37.1467 6.71696 37.3562 6.50114C37.6847 6.1602 38.0099 5.80989 38.2977 5.43455C38.4916 5.18119 38.6136 5.23124 38.82 5.41578C40.9249 7.29561 43.0393 9.16918 45.1505 11.0427C45.1974 11.0834 45.2443 11.1241 45.2943 11.1679C45.4163 11.0772 45.36 10.9552 45.3631 10.8582C45.3663 9.34434 45.3756 7.83047 45.3569 6.31659C45.3538 6.02571 45.4382 5.96628 45.7103 5.97566C46.2483 5.99756 46.7862 5.98817 47.3242 5.97566C47.5056 5.97253 47.5744 6.02571 47.5525 6.20712C47.54 6.2947 47.5525 6.38228 47.5525 6.46986C47.5525 27.5984 47.5525 48.7269 47.5525 69.8554H45.3757L45.3694 69.8585Z" fill="white"/>
<path d="M8.52522 69.8586C8.52522 51.4294 8.52522 32.9971 8.53148 14.5679C8.53148 14.2676 8.45328 14.0674 8.22496 13.8672C5.66651 11.6121 3.12057 9.3444 0.565243 7.08611C0.477668 7.00791 0.418242 6.87654 0.27124 6.88593V6.73579C0.734139 6.3542 1.08757 5.87251 1.47853 5.42523C1.67557 5.20003 1.7694 5.22818 1.96958 5.40959C4.06513 7.28316 6.17007 9.14422 8.27188 11.0084C8.33443 11.0647 8.39699 11.1179 8.46579 11.1773C8.56901 11.0678 8.52209 10.949 8.52209 10.8458C8.52522 9.33189 8.53148 7.81802 8.51897 6.30415C8.51897 6.04141 8.57839 5.96635 8.84424 5.97573C9.38221 5.99762 9.92017 5.98824 10.4581 5.97573C10.6427 5.9726 10.7459 6.01013 10.7115 6.2197C10.7021 6.26974 10.7115 6.31979 10.7115 6.36984C10.7115 27.4202 10.7115 48.4705 10.7115 69.5176C10.7115 69.6302 10.7083 69.7429 10.7052 69.8555H8.52835L8.52522 69.8586Z" fill="white"/>
<path d="M69.9062 69.8585C69.9062 50.907 69.9062 31.9554 69.9062 13.0039C69.9062 12.8663 69.903 12.7286 69.8999 12.591C69.9281 12.591 69.9531 12.591 69.9812 12.5879C69.9812 31.5645 69.9812 50.5441 69.9781 69.5207C69.9781 69.6302 70.0657 69.7741 69.9062 69.8585Z" fill="white"/>
<path d="M35.0137 0.129761C35.0137 1.22763 35.0074 2.32237 35.0262 3.42024C35.0325 3.76117 34.8135 3.64544 34.6571 3.65483C34.4945 3.66421 34.3193 3.72051 34.3256 3.42024C34.3444 2.32237 34.3381 1.22763 34.3381 0.129761H35.0137Z" fill="white"/>
<path d="M46.2702 0.129761C46.2702 0.167295 46.2733 0.204829 46.2764 0.242363C46.2952 0.505101 46.3077 0.689643 45.9136 0.683387C45.5195 0.677131 45.5884 0.467567 45.5884 0.242363C45.5884 0.204829 45.5915 0.167295 45.5946 0.129761C45.8198 0.129761 46.045 0.129761 46.2702 0.129761Z" fill="white"/>
<path d="M69.8998 1.03677C69.9248 1.03677 69.953 1.03365 69.978 1.03052V1.70613C69.7997 1.703 69.6246 1.69987 69.4463 1.69675C69.6715 1.52784 69.8372 1.31828 69.8998 1.03677Z" fill="white"/>
<path d="M12.0095 2.43805C12.0095 2.23787 12.0033 2.03769 12.0095 1.83751C12.0189 1.64671 12.0158 1.48093 11.7468 1.51847C11.6092 1.53724 11.5685 1.45278 11.5841 1.33393C11.5967 1.24635 11.5247 1.0837 11.6748 1.09621C12.1096 1.14 12.0189 0.836601 12.0001 0.611397C11.9814 0.354914 12.0814 0.307997 12.3192 0.298613C12.5975 0.28923 12.707 0.364298 12.6663 0.648931C12.6288 0.917924 12.6444 1.15877 13.0354 1.08683C13.2168 1.05242 13.1824 1.19943 13.1887 1.30578C13.198 1.43714 13.1699 1.54036 13.0104 1.51221C12.682 1.45278 12.6444 1.63107 12.6601 1.89694C12.6788 2.19721 12.6601 2.49748 12.6663 2.79775C12.6695 2.9948 12.7414 3.1512 12.976 3.12305C13.2668 3.08864 13.1668 3.2982 13.1887 3.43583C13.2168 3.62663 13.1261 3.67354 12.9572 3.66416C12.8071 3.65478 12.6569 3.67354 12.5099 3.65165C12.2003 3.60786 12.0095 3.44209 12.0064 3.10741C12.0064 2.8822 12.0064 2.657 12.0064 2.4318L12.0095 2.43805Z" fill="white"/>
<path d="M69.8998 1.0368C69.9655 1.40589 69.8936 1.67801 69.4463 1.69678C69.121 1.79999 69.0241 2.06273 69.0084 2.363C68.9928 2.67579 68.9834 2.98857 69.0084 3.29823C69.0335 3.58911 68.9428 3.66105 68.6488 3.67044C68.311 3.68295 68.3016 3.52969 68.3078 3.27946C68.3203 2.67892 68.3078 2.0815 68.311 1.48096C68.311 1.2839 68.2328 1.06808 68.5987 1.07434C68.9115 1.08059 68.9959 1.18381 68.924 1.52787C69.2305 1.24324 69.4745 0.936712 69.8998 1.03368V1.0368Z" fill="white"/>
<path d="M45.5853 2.34739C45.5853 2.00958 45.6072 1.67177 45.5791 1.34022C45.554 1.04934 45.7292 1.07436 45.9012 1.09313C46.0545 1.10876 46.289 0.974268 46.2797 1.31833C46.2609 2.02835 46.2672 2.73837 46.2797 3.44838C46.2859 3.80183 46.0294 3.6298 45.8856 3.65169C45.7354 3.67672 45.5634 3.70487 45.5822 3.42962C45.6072 3.06992 45.5884 2.70709 45.5884 2.34739H45.5853Z" fill="white"/>
<path d="M16.4414 8.74379C13.6985 8.75004 11.5216 10.952 11.5278 13.7202C11.531 16.3945 13.7735 18.6215 16.479 18.5902C19.4128 18.5558 21.4239 16.138 21.3738 13.5513C21.3238 10.9208 19.125 8.73753 16.4414 8.74379ZM16.4414 16.4101C14.9402 16.4101 13.7078 15.1715 13.7047 13.667C13.7047 12.1594 14.9245 10.9301 16.4321 10.9114C17.9365 10.8926 19.1751 12.1406 19.1751 13.6764C19.1751 15.1903 17.9521 16.4132 16.4383 16.4101H16.4414Z" fill="white"/>
<path d="M53.2636 8.74383C50.5488 8.75321 48.3625 10.9396 48.3625 13.6514C48.3625 16.382 50.5582 18.5934 53.2762 18.5934C55.991 18.5934 58.2023 16.3757 58.2054 13.6545C58.2054 10.9396 55.9879 8.73132 53.2636 8.74383ZM53.1479 16.4101C51.6341 16.357 50.4863 15.0558 50.5457 13.4637C50.5989 12.0718 51.9156 10.8614 53.3168 10.9145C54.9182 10.974 56.0786 12.2314 56.016 13.8391C55.9597 15.2873 54.6461 16.4633 53.1479 16.4101Z" fill="white"/>
<path d="M2.83901 1.79371C2.83276 1.61542 2.8265 1.44652 2.69827 1.30577C2.2948 0.861614 1.02182 0.924171 0.680906 1.41524C0.59333 1.54035 0.47135 1.68423 0.587075 1.84688C0.646501 1.93133 1.20323 1.85314 1.23764 1.75305C1.3471 1.41837 1.61609 1.48092 1.85692 1.48718C2.02581 1.49031 2.13528 1.57476 2.14779 1.76243C2.1603 1.94384 2.09462 2.04706 1.91322 2.07834C1.61921 2.12839 1.32208 2.16592 1.03121 2.23473C0.615224 2.3317 0.443201 2.56941 0.455712 2.98541C0.465095 3.37639 0.646501 3.57657 1.04997 3.68292C1.38776 3.77363 1.68802 3.68605 1.98828 3.54529C2.05396 3.51402 2.15718 3.41393 2.17594 3.4671C2.34797 3.87997 2.66699 3.55155 2.91721 3.67041C2.78272 3.01669 2.85778 2.40364 2.83901 1.79371ZM1.60358 3.26692C1.37838 3.27317 1.16257 3.22938 1.12817 2.96665C1.09376 2.71016 1.27517 2.59131 1.50036 2.54439C1.70366 2.5006 1.91009 2.46619 2.12903 2.42553C2.16343 3.03546 2.02269 3.25753 1.60358 3.27005V3.26692Z" fill="white"/>
<path d="M23.8728 2.52879C24.098 2.5413 24.3232 2.52879 24.5453 2.52879C24.783 2.52879 25.0207 2.51315 25.2553 2.53504C25.4742 2.55381 25.4961 2.45372 25.4898 2.27856C25.4711 1.48722 24.8862 0.961744 24.0886 1.02117C23.3661 1.07747 22.825 1.78124 22.9345 2.53504C23.0127 3.07929 23.2692 3.5078 23.829 3.65794C24.3545 3.79869 24.8487 3.733 25.2177 3.28572C25.3053 3.17938 25.4742 2.99171 25.3647 2.91038C25.2271 2.80717 24.9894 2.81655 24.808 2.92915C24.7455 2.96669 24.711 3.04488 24.6516 3.08554C24.2951 3.3389 23.8103 3.18876 23.6601 2.80091C23.5726 2.57258 23.6414 2.51628 23.8634 2.52879H23.8728ZM23.6257 2.05961C23.6945 1.70304 23.8947 1.53414 24.22 1.52475C24.5578 1.5185 24.7361 1.7093 24.7986 2.05961H23.6289H23.6257Z" fill="white"/>
<path d="M57.5767 2.52877C57.8269 2.53815 58.0771 2.52877 58.3242 2.52877C58.5494 2.52877 58.7746 2.51313 58.9967 2.5319C59.2187 2.55067 59.2657 2.46934 59.2563 2.25978C59.2219 1.54038 58.7183 1.01803 58.0271 1.01177C57.2702 1.00552 56.7166 1.54663 56.6947 2.32233C56.6759 2.91662 56.9731 3.40769 57.4704 3.60787C58.0114 3.82369 58.6245 3.71422 58.9466 3.32637C59.0498 3.20126 59.2594 3.00733 59.1249 2.89786C59.0092 2.80402 58.7214 2.76961 58.5494 2.96354C58.515 3.00107 58.4837 3.03861 58.4431 3.06676C58.0709 3.34826 57.5392 3.17936 57.4172 2.74772C57.3703 2.58507 57.3953 2.51939 57.5767 2.52564V2.52877ZM57.9708 1.52474C58.3211 1.52474 58.515 1.70615 58.5557 2.06898H57.4328C57.4641 1.71241 57.6424 1.52474 57.9708 1.52474Z" fill="white"/>
</g>
<defs>
<clipPath id="clip0_1_248">
<rect width="69.7288" height="69.7288" fill="white" transform="translate(0.27124 0.129761)"/>
</clipPath>
</defs>
</svg>
