<svg width="31" height="29" viewBox="0 0 31 29" fill="none" xmlns="http://www.w3.org/2000/svg">
<g clip-path="url(#clip0_1_263)">
<path d="M31 14.2638C31 6.38612 24.0604 0 15.5 0C6.93958 0 0 6.38612 0 14.2638C0 21.3832 5.6681 27.2843 13.0781 28.3543V18.3869H9.14258V14.2638H13.0781V11.1213C13.0781 7.54644 15.3922 5.5718 18.9327 5.5718C20.628 5.5718 22.4023 5.85039 22.4023 5.85039V9.36062H20.4479C18.5225 9.36062 17.9219 10.4602 17.9219 11.5893V14.2638H22.2207L21.5335 18.3869H17.9219V28.3543C25.3319 27.2843 31 21.3832 31 14.2638Z" fill="white"/>
</g>
<defs>
<clipPath id="clip0_1_263">
<rect width="31" height="28.5276" fill="white"/>
</clipPath>
</defs>
</svg>
