<svg width="163" height="44" viewBox="0 0 163 44" fill="none" xmlns="http://www.w3.org/2000/svg">
<g clip-path="url(#clip0_1_20)">
<path d="M159.161 24.2926C160.15 24.2926 160.15 22.7574 159.161 22.7574C158.172 22.7574 158.172 24.2926 159.161 24.2926Z" fill="white"/>
<path d="M159.12 24.3233C160.109 24.3233 160.109 22.7881 159.12 22.7881C158.13 22.7881 158.13 24.3233 159.12 24.3233Z" fill="white"/>
<path d="M159.135 24.3029C160.124 24.3029 160.124 22.7676 159.135 22.7676C158.146 22.7676 158.146 24.3029 159.135 24.3029Z" fill="white"/>
<path d="M159.145 24.2875C160.135 24.2875 160.135 22.7523 159.145 22.7523C158.156 22.7523 158.156 24.2875 159.145 24.2875Z" fill="white"/>
<path d="M159.156 24.2824C160.145 24.2824 160.145 22.7471 159.156 22.7471C158.166 22.7471 158.166 24.2824 159.156 24.2824Z" fill="white"/>
<path d="M159.176 24.267C160.165 24.267 160.165 22.7318 159.176 22.7318C158.187 22.7318 158.187 24.267 159.176 24.267Z" fill="white"/>
<path d="M159.192 24.2363C160.181 24.2363 160.181 22.7011 159.192 22.7011C158.202 22.7011 158.202 24.2363 159.192 24.2363Z" fill="white"/>
<path d="M159.099 23.6018C159.166 23.525 159.791 22.5885 159.791 22.5885L159.099 23.6018Z" fill="#F1CB3D"/>
<path d="M159.643 24.1442C159.781 23.9753 159.899 23.7962 160.022 23.6171C160.145 23.438 160.258 23.2691 160.376 23.0951C160.401 23.0542 160.427 23.0184 160.453 22.9774C160.509 22.8904 160.54 22.7932 160.545 22.6909C160.565 22.5885 160.565 22.4862 160.529 22.3838C160.504 22.2815 160.458 22.1945 160.391 22.1228C160.335 22.0409 160.263 21.9744 160.176 21.9232C159.996 21.8311 159.781 21.7799 159.581 21.8465L159.397 21.9232C159.279 21.9898 159.192 22.0819 159.12 22.1996C158.935 22.481 158.746 22.7574 158.556 23.0337C158.515 23.09 158.479 23.1514 158.433 23.2077L158.551 23.0542C158.551 23.0542 158.551 23.0542 158.546 23.0593C158.469 23.131 158.418 23.2128 158.387 23.305C158.341 23.3971 158.315 23.4943 158.32 23.6018C158.32 23.7092 158.341 23.8065 158.387 23.8986C158.418 23.9958 158.469 24.0777 158.546 24.1442C158.694 24.2773 158.884 24.3796 159.089 24.3694L159.294 24.3438C159.422 24.308 159.535 24.2415 159.632 24.1442H159.643Z" fill="white"/>
<path d="M0 26.2475C0.0768868 26.0991 0.169151 25.9507 0.235786 25.7972C1.26094 23.2947 2.28097 20.7923 3.30613 18.2898C3.33689 18.208 3.37789 18.1312 3.42403 18.0237C4.17239 18.1977 4.92075 18.3717 5.66912 18.5457C8.20638 19.1445 10.759 19.6664 13.3527 19.9377C16.2949 20.2447 19.2319 20.2242 22.1485 19.6204C22.2715 19.5948 22.4817 19.6562 22.5535 19.7483C25.0856 23.0951 28.4379 25.3929 32.1541 27.2147C35.1526 28.6834 38.305 29.6813 41.5906 30.2596C44.2817 30.7355 46.9983 30.8788 49.7253 30.715C53.9643 30.4592 58.0239 29.4613 61.8734 27.6343C61.8939 27.6241 61.9195 27.6241 61.9605 27.619C65.1692 31.0119 69.0443 33.3812 73.4166 34.9933C72.0532 34.8346 1.83503 26.5545 0.48695 26.3959C0.32805 26.3754 0.169151 26.3447 0.0102516 26.3243C0.0102516 26.2987 0.0102516 26.2731 0.0102516 26.2475H0Z" fill="#F1CB3D"/>
<path d="M60.6688 26.1605C48.3874 31.7846 32.4001 28.3661 24.3782 19.0472C24.9215 18.8221 25.4649 18.6225 25.9928 18.3768C27.9611 17.4608 29.6321 16.1968 30.7393 14.2931C31.4518 13.07 31.7593 11.7548 31.4159 10.3424C30.9751 8.5257 29.5963 7.27704 27.7407 7.02117C25.1573 6.66294 22.2203 8.09584 20.9388 10.3629C20.3032 11.4836 20.1289 12.7016 20.2161 13.9758C20.3083 15.3422 20.7389 16.6062 21.3694 17.8856C20.6056 17.9828 19.8829 18.1005 19.155 18.1619C15.69 18.4434 12.2814 17.9981 8.89833 17.3022C7.38623 16.99 5.87925 16.6369 4.37227 16.2991C4.31588 16.2838 4.2595 16.2582 4.15698 16.2224C4.29538 15.8846 4.4184 15.5622 4.55167 15.2449C6.58148 10.2605 8.62154 5.28123 10.6462 0.296813C10.759 0.0204697 10.882 -0.0255875 11.1742 0.0102347C13.1681 0.286578 149.745 18.4075 151.892 18.689C151.498 19.17 151.154 19.5999 150.795 20.0195C147.1 24.2977 142.799 27.8186 137.725 30.3517C134.296 32.0609 130.697 33.2584 126.884 33.7344C125.387 33.9186 123.88 34.0772 122.373 34.0772C117.837 34.0823 113.464 33.238 109.348 31.278C108.021 30.6485 106.755 29.9014 105.402 29.1747C105.54 28.9956 105.607 28.8983 105.683 28.8113C107.057 27.2454 108.005 25.4645 108.216 23.3715C108.492 20.6029 107.739 18.1721 105.55 16.335C103.638 14.7332 100.711 14.7025 98.4407 16.1763C96.4365 17.4762 95.724 19.5334 96.4775 21.8004C96.944 23.2026 97.7948 24.3643 98.7124 25.4901C99.7631 26.7797 100.932 27.9567 102.218 29.016C102.306 29.0877 102.398 29.1491 102.49 29.2207C93.238 36.7383 74.5238 37.726 63.6981 26.6876C64.3183 26.2373 64.9591 25.8125 65.5485 25.3264C67.035 24.1135 68.2652 22.696 68.7829 20.8025C69.4544 18.3461 68.9674 16.1098 67.199 14.2573C65.2922 12.2563 62.3141 12.154 60.2382 13.9912C57.8393 16.1149 57.3473 18.7709 58.2238 21.7544C58.6697 23.2691 59.4847 24.5946 60.4432 25.8432C60.5201 25.9404 60.5919 26.0377 60.679 26.1605H60.6688Z" fill="#F1CB3D"/>
<path d="M88.0149 36.7178C93.9044 36.0065 99.3326 34.154 103.977 30.5155C105.494 31.3445 106.944 32.2247 108.472 32.9565C111.424 34.3792 114.551 35.2389 117.801 35.6943C119.949 35.9963 122.106 36.073 124.264 35.9502C128.734 35.6995 132.999 34.5839 137.079 32.7518C142.307 30.4029 146.849 27.097 150.749 22.9109C151.718 21.8721 152.774 20.562 153.399 19.6255C153.487 19.5231 153.712 19.0012 154.025 19.0012C156.818 19.3747 159.884 19.7432 162.672 20.1168C162.769 20.1321 162.862 20.1628 163 20.1935C162.59 20.9509 150.693 42.7769 150.191 43.7237C150.073 43.9437 149.94 44.0256 149.688 43.9949C148.104 43.8004 88.5582 36.7792 88.0149 36.7178Z" fill="#F1CB3D"/>
<path d="M103.838 28.0284C102.757 26.9793 101.701 25.9916 100.691 24.9579C99.799 24.047 99.0404 23.0235 98.4971 21.8567C98.21 21.2375 98.0101 20.5978 98.087 19.907C98.1844 19.083 98.5996 18.428 99.2506 17.9316C100.793 16.7546 103.131 16.5704 104.689 18.034C105.627 18.9142 106.124 20.0298 106.309 21.2836C106.647 23.5659 105.894 25.5259 104.484 27.2863C104.305 27.5064 104.11 27.7162 103.838 28.0284Z" fill="#F1CB3D"/>
<path d="M62.3963 25.2905C60.9815 23.4482 59.6847 21.5804 59.6898 19.1649C59.6898 17.6399 60.3254 16.3606 61.5095 15.3882C63.0729 14.1037 65.036 14.375 66.2098 16.0126C67.44 17.7269 67.4708 19.9377 66.2611 21.7953C65.2923 23.2794 63.9391 24.3489 62.3963 25.2854V25.2905Z" fill="#F1CB3D"/>
<path d="M23.2096 17.3994C22.3946 15.946 21.9282 14.4364 22.1434 12.7937C22.3997 10.8337 23.8555 9.38032 25.9365 8.97092C26.485 8.86346 27.0898 8.83275 27.6332 8.94022C29.2222 9.2575 30.0064 10.7672 29.4989 12.4047C29.0889 13.7353 28.197 14.7127 27.1052 15.5264C25.9365 16.3861 24.6295 16.9542 23.2096 17.3994Z" fill="#F1CB3D"/>
</g>
<defs>
<clipPath id="clip0_1_20">
<rect width="163" height="44" fill="white"/>
</clipPath>
</defs>
</svg>
